# File produced by Open Asset Import Library (http://www.assimp.sf.net)
# (assimp v5.2.0)

mtllib hand.mtl

# 102 vertex positions
v  0.0167349074 0.090128921 0.064431861
v  0.0171342511 -0.089271225 0.0636143908
v  0.0315897912 -0.00055851764 0.00621422706
v  -0.0170536675 -0.0955247805 0.0221212022
v  -0.017510375 -0.0979076177 0.0516661629
v  -0.0315975025 -0.00198650407 0.00115293125
v  -0.0259809867 0.075769715 -0.00508223288
v  -0.0316359177 -0.00057873287 0.00597307459
v  0.0170331635 -0.096802257 0.0303220376
v  0.0316157825 -0.00186085724 0.00117970596
v  0.0175851025 -0.0974070504 0.0519846454
v  0.0185558591 0.0946019441 0.0566172861
v  -0.016804168 -0.0919061229 0.00629548496
v  -0.016812237 -0.0875329003 -0.00120645249
v  0.0162301082 -0.0995375216 0.051584091
v  -4.10843932e-05 -0.10398972 0.00569087639
v  -1.72733253e-05 -0.103742696 -0.00919930451
v  -0.00361677096 -0.101157814 -0.0126103247
v  -0.00342955603 -0.102597848 -0.00896429643
v  -0.0252703596 0.0820651129 0.00519704074
v  -0.0280108657 0.0417843014 -0.00639640214
v  -0.000112568945 0.0928084925 0.0659621507
v  -0.0125667108 0.0937124938 0.0651684701
v  -0.0144219566 0.0912764594 0.0656897351
v  -0.0172546599 -0.0907003134 0.0630820096
v  -0.015471708 -0.0907063261 0.0651900992
v  -0.0167672392 0.0902522057 0.0643322021
v  0.0169555284 -0.091602914 0.00556283304
v  0.0176071636 -0.0938475728 0.058448486
v  0.012505684 -0.100187518 0.0568941496
v  0.0155509245 0.100199789 0.0546725988
v  0.0192688257 0.0984935686 0.0449417382
v  0.0162183847 0.100285217 0.0458697677
v  0.00191743637 -0.0455199406 -0.0256594345
v  0.0280150808 0.0420423485 -0.00634960365
v  0.00381033798 -0.0829661861 -0.0244493354
v  0.0206708759 0.0936918408 0.0433082916
v  0.0254479423 0.0811805055 0.00350060477
v  -0.00363681535 -0.0835859105 -0.0246062577
v  -0.0165326931 -0.0822362751 -0.00511810929
v  -0.0140171163 -0.100091122 0.0560269468
v  -0.0160131305 -0.0996286348 0.0493014306
v  -0.0032150913 -0.0877659842 -0.0238843933
v  -0.0129879294 -0.0924957544 0.0657119453
v  -0.000505639357 -0.0929453149 0.0659531057
v  0.0135395806 0.0926721394 0.0656878799
v  0.013424811 -0.0919270068 0.0657313094
v  -0.0192292221 0.097260572 0.050588429
v  0.0165582187 -0.0851321742 -0.00387273612
v  0.00349476957 -0.102715641 -0.00802934077
v  0.0238691568 0.0904014036 0.00436823675
v  0.0227078013 0.0937355533 0.0143400226
v  0.0260343049 0.0752975792 -0.00503084762
v  0.0248167496 0.0743775442 -0.00715570012
v  -0.00150014833 -0.0458698496 -0.0259248018
v  -0.000833770784 0.0802599713 -0.00732171722
v  0.0229590982 0.0779013783 -0.00739903888
v  -0.0227611288 0.0801743641 -0.00690953946
v  3.18097154e-05 -0.0994514301 -0.0171612054
v  -0.0166321453 -0.0985539854 0.0547339357
v  0.00360212591 -0.10119468 -0.0126276361
v  -0.00161672942 0.0974710584 0.0623073354
v  0.0157183781 -0.0917795748 0.0649125353
v  -0.0184486806 0.0920155272 0.0583931692
v  -0.000626994006 -0.0879747421 -0.0249616038
v  0.00307600177 -0.0879728943 -0.0239787251
v  0.0198020469 0.0970110595 0.0209139753
v  0.00994154718 0.100034736 0.0583407953
v  0.0171294529 0.0990672186 0.0543051586
v  -0.000314131437 0.0946153477 0.00757465838
v  -1.59471419e-05 0.0984960645 0.0270817932
v  -0.000337322737 0.0865616202 -0.00416328106
v  0.0223142859 0.088249974 -0.00193319982
v  0.0223769788 0.0833551958 -0.00552611286
v  -0.0213249587 0.0909269005 0.000979802106
v  -0.0227327775 0.0854344741 -0.00412033172
v  -0.0244952533 0.0858923495 -0.00183272921
v  0.00184278982 -0.0840023085 -0.0255249012
v  -0.0246502478 0.0766680017 -0.00693212589
v  0.0131387347 -0.0940628871 0.064683184
v  -0.0093238689 -0.0999826416 0.0584891997
v  -0.0190667938 0.0976971388 0.0246274807
v  -0.00449438812 0.100425877 0.0581190921
v  -0.0146230981 0.100168213 0.0557349175
v  0.0158049054 -0.0994162634 0.0549702719
v  0.0213425905 0.0943331271 0.00894200709
v  -0.000173405831 0.0909950361 0.000576783612
v  0.0214829035 0.0917946845 0.00268412847
v  0.0245151669 0.08170259 -0.00505142333
v  0.024729386 0.0857401043 -0.00123169355
v  -0.0206576437 0.0946679115 0.00953798462
v  0.00119058858 -0.100301482 0.0586231314
v  0.000469601568 -0.0966558829 0.0630783588
v  0.0153968967 0.0929055884 0.0645562708
v  -0.000867829483 -0.0825484693 -0.0258702002
v  -0.0235557836 0.0911663175 0.00460792007
v  -0.0146170259 -0.093441695 0.0645000488
v  -0.0230260901 0.0928968638 0.00987686217
v  -0.0218221433 0.0954417065 0.021756364
v  -0.0181926377 0.0995179415 0.0438141711
v  -0.0160455238 0.0932092592 0.0636168718
v  -0.0169948488 0.0993628576 0.054114785

# 0 UV coordinates

# 200 vertex normals
vn 0.969339967 0.00103808485 0.245721012
vn -0.986759007 -0.159733906 -0.0281360932
vn -0.997161925 0.0697563365 -0.0283201747
vn 0.986570835 -0.160625562 -0.029621236
vn 0.991369963 -0.125584513 0.0376045704
vn 0.972564578 0.0101092812 0.232413471
vn -0.981256962 -0.166938961 -0.0962610468
vn -0.991092145 -0.129756168 0.0299977697
vn -0.984842122 -0.165070176 -0.053270828
vn 0.303856462 -0.952594757 -0.0153173041
vn -0.745915651 -0.631674469 -0.211180568
vn -0.996794939 0.0769814923 0.0217642598
vn -0.992515802 0.0633186921 -0.104418039
vn -0.0442760102 0.241168544 0.969472766
vn -0.763533175 -0.00240485976 0.645764112
vn 0.98593992 -0.162884668 -0.0372967198
vn 0.986848772 -0.0650595725 0.147975519
vn 0.991549015 -0.115042046 0.0599665083
vn 0.203398302 -0.978829503 0.0228453446
vn 0.51657325 0.854926348 0.0474658385
vn 0.587131381 0.00352044776 -0.809484005
vn 0.992470086 0.0777169317 0.0946739763
vn -0.832137287 -0.113798037 -0.542768478
vn -0.990867198 -0.102890037 0.0871543735
vn -0.246669516 -0.969077349 0.00656585302
vn -0.796751618 -0.375025392 -0.473859489
vn -0.0190316103 -2.76700575e-05 0.999818802
vn -0.0193167981 -7.80837127e-06 0.999813378
vn 0.0200855471 -9.11851312e-05 0.999798238
vn 0.0159035046 0.000225346303 0.999873519
vn -0.991348207 0.0773533508 0.106043249
vn 0.846324027 -0.531423271 -0.0364002176
vn 0.838335752 -0.119317383 -0.531936467
vn 0.713390529 -0.685354888 -0.146159142
vn 0.752914786 -0.0507794395 -0.656156063
vn 0.962439477 0.234445408 0.136915281
vn 0.986729622 0.0540528744 0.15311113
vn 0.98446393 0.16224055 0.0671481714
vn 0.96368438 0.258200824 0.068151772
vn 0.988282979 0.135790005 0.0696968958
vn 0.992400706 0.0632946789 -0.105520904
vn 0.997131586 0.0735636353 0.0178060513
vn 0.997124553 0.0744551644 -0.0141125489
vn 0.525671303 0.0308018234 -0.850129902
vn 0.0112428768 0.145845696 -0.989243567
vn -0.0191624649 0.145985305 -0.989101171
vn 0.295801252 0.0902680308 -0.950974882
vn -0.753521383 -0.0512983613 -0.655419111
vn -0.557064414 -0.525002599 -0.643468261
vn -0.826524556 -0.175736755 -0.534765244
vn -0.815256059 -0.315570772 -0.485564321
vn -0.94751364 -0.156066 -0.279036641
vn -0.933839738 -0.292644143 0.20567666
vn 0.168927908 -0.868065715 -0.46682474
vn -0.713160574 -0.698683321 0.0569532178
vn -0.304508954 -0.952370286 -0.0162867811
vn 0.0219417568 0.621147215 0.783386648
vn -0.00551132252 0.615809619 0.787875712
vn 0.366119623 0.000413018337 0.930567682
vn 0.336198628 1.25395673e-05 0.941791058
vn -0.969752967 -7.3404939e-05 0.244088814
vn -0.962126017 0.000708185136 0.272604316
vn -0.988229036 0.0614230819 0.140109837
vn -0.360461771 -0.538401246 -0.761703014
vn 0.829278529 -0.171620771 -0.531830251
vn 0.677571297 -0.00184298377 0.735454798
vn 0.496348172 0.86708343 -0.0424839184
vn 0.0755332634 0.722594976 0.687132597
vn 0.904977381 0.38397482 0.183246434
vn 0.0127057973 0.980664015 -0.195286319
vn 0.851810932 0.0713164732 -0.518972039
vn 0.0351954028 0.591652811 -0.805424273
vn -0.538897634 0.643215477 -0.543933094
vn 0.077784203 -0.0036362384 -0.996963501
vn -0.198729604 0.113339551 -0.973478675
vn -0.793117583 -0.605992675 -0.0611343011
vn 0.283570975 -0.958904564 -0.00945906527
vn -0.178475037 -0.86568886 -0.467685252
vn -0.987867773 0.153185755 -0.0255232211
vn -0.206644848 -0.00149424828 0.978414893
vn -0.501132309 0.000514843967 0.865370512
vn 0.0467748754 -0.445100516 0.894258201
vn -0.0152496817 -0.997215152 0.0730019361
vn -0.0160242058 0.980701506 -0.194853559
vn -0.104719661 0.777309299 0.620341897
vn -0.0162484143 0.99910897 -0.0389505252
vn 0.812942564 -0.463729531 -0.352248967
vn 0.734942913 -0.648753822 -0.197426915
vn 0.355505168 -0.889833212 -0.286029667
vn 0.779749751 -0.493228674 0.385636836
vn 0.264343292 -0.962053835 0.0676396042
vn 0.542077124 -0.664141476 0.514847994
vn 0.47049287 -0.711825311 0.521479785
vn 0.584351003 -0.807368457 -0.0817932785
vn 0.826668084 -0.54897815 0.123462327
vn 0.873314619 -0.427985936 0.23270078
vn 0.0134981312 0.821384549 0.570215046
vn 0.481279165 -0.00399798388 -0.876558363
vn 0.0262960922 0.976262271 -0.214989632
vn 0.0353929549 0.991524875 -0.125003785
vn -0.0252692048 0.468427181 -0.883140624
vn 0.0295330118 0.795426905 -0.605329454
vn 0.00951040071 0.447458625 -0.894254029
vn 0.0293921977 0.327461064 -0.944407463
vn 0.0628955066 0.135567307 -0.98876971
vn -0.51237911 0.0361848734 -0.857996583
vn -0.825749993 0.0709575787 -0.559554994
vn 0.671123683 0.490385592 -0.5559811
vn -0.583103538 0.00463287579 -0.812384725
vn -0.016299434 0.980638623 -0.195146188
vn -0.15703924 0.798730314 0.580834329
vn 0.973711491 -0.166649833 -0.155286118
vn 0.07579083 -0.765650451 0.638776302
vn -0.024274243 0.999674439 0.0078585064
vn 0.0265567694 0.999087989 0.0334344134
vn 0.763662577 0.633795261 -0.122975372
vn 0.594010174 0.799769402 0.0867230073
vn 0.277533472 0.74317354 0.608825445
vn 0.344643027 0.752738178 0.560897708
vn 0.784743369 0.463667393 0.411327451
vn -0.0358678922 0.684935391 -0.72772032
vn 0.93280071 0.220324636 -0.285201162
vn 0.624228776 0.728723943 -0.281602472
vn -0.0116186421 0.888023257 -0.459651619
vn 0.0118943918 0.888214946 -0.459274054
vn 0.126739591 0.000708284322 -0.99193573
vn -0.412606299 -0.00846906658 -0.910870075
vn -0.798626244 -0.520306349 -0.302452296
vn -0.541514277 -0.834316313 0.103336975
vn -0.319294661 -0.947429895 -0.020675825
vn -0.72365582 -0.670230448 -0.164661407
vn 0.0240120366 -0.608318329 0.793329835
vn -0.0315556526 -0.776032925 0.629902422
vn 0.0205919184 -0.997402906 0.0690183491
vn -0.0311285704 -0.997047365 0.070197165
vn -0.98277539 0.18463777 -0.00783845503
vn 0.216123551 -0.540323853 -0.813228607
vn 0.246084556 -0.284389317 -0.926587939
vn 0.556313694 -0.528433442 -0.641305804
vn 0.792538702 -0.378770381 -0.477928221
vn 0.880372226 -0.31212905 0.357099891
vn 0.325605214 -0.45132181 0.830836892
vn 0.101104595 -0.786036849 0.609855652
vn 0.535960376 -0.15658842 -0.829594135
vn 0.580735564 0.65067631 0.489251107
vn 0.491562277 0.198883995 0.847827613
vn 0.828340709 0.380744189 0.410956889
vn 0.0357459635 0.926350951 -0.374961615
vn 0.656777263 0.749488056 -0.0831340328
vn 0.720530689 0.692906499 -0.0267625172
vn 0.572813034 0.248018384 -0.781263113
vn 0.990951478 0.132223755 -0.0230681468
vn 0.98577261 0.167665243 0.0118660303
vn -0.0153617589 0.730516076 -0.682722628
vn 0.0128536783 0.730054677 -0.683267951
vn -0.0185445733 0.449168503 -0.893254638
vn -0.619205356 -0.779582024 -0.094002299
vn -0.32042709 -0.886549652 -0.333701074
vn -0.0989435315 -0.715546191 0.691522777
vn -0.0841099471 -0.71285218 0.696252227
vn -0.60803026 -0.644894361 0.463044763
vn -0.423761219 -0.34380421 0.837988675
vn -0.605208099 0.788757443 -0.107633211
vn -0.0174541287 0.996655822 -0.0798282027
vn -0.0193589143 0.998626947 -0.0486782901
vn -0.634293854 0.640924692 -0.432304174
vn 0.0379495025 -0.163387448 -0.985831857
vn 0.538781941 0.502971351 -0.675820768
vn 0.813643932 0.191216022 -0.54901731
vn 0.652478993 0.653286874 -0.384041071
vn 0.71781528 0.585349917 -0.376970261
vn -0.286085159 -0.763532341 0.578941822
vn -0.0374327116 -0.618146896 0.785170972
vn -0.709079444 -0.372579962 0.598657072
vn -0.878489077 0.351218611 0.323886484
vn -0.890815675 0.299972534 0.341267973
vn -0.868133128 0.372523159 0.327980816
vn -0.605162919 0.772390604 -0.192848682
vn -0.984554827 0.156402454 0.0786763877
vn -0.982298017 0.176886275 0.0616600253
vn -0.981594503 0.187328383 0.0371542424
vn -0.445889711 0.832393885 -0.329094201
vn -0.363722831 0.729882002 0.578772783
vn -0.575721025 0.322294146 0.751446426
vn 0.442358494 0.333164394 -0.832658708
vn -0.70625031 0.351573437 -0.614497066
vn -0.654527843 0.356931388 -0.666478276
vn -0.838843584 0.274101168 -0.470329702
vn -0.354701608 0.933342993 0.0552966334
vn -0.561742783 0.820556998 -0.105504617
vn -0.851741493 0.522140145 0.043659687
vn -0.759617686 0.642942429 0.0980105251
vn -0.0360333323 0.916716456 -0.397909939
vn -0.560808122 0.66825968 0.488797754
vn -0.414233595 0.480836779 0.772791445
vn -0.390321255 -0.168870896 -0.90505898
vn -0.752648056 -0.506644905 0.420513749
vn -0.0297430437 0.995213389 -0.093090184
vn -0.346495897 -0.193468943 -0.917883694
vn -0.602128088 0.796943426 -0.0481962524

# Mesh '' with 200 faces
usemtl DefaultMaterial
f  1//1 2//1 3//1
f  4//2 5//2 6//2
f  7//3 6//3 8//3
f  9//4 10//4 11//4
f  10//5 3//5 11//5
f  12//6 1//6 3//6
f  13//7 6//7 14//7
f  8//8 6//8 5//8
f  4//9 6//9 13//9
f  15//10 16//10 17//10
f  18//11 19//11 13//11
f  20//12 7//12 8//12
f  21//13 6//13 7//13
f  22//14 23//14 24//14
f  25//15 26//15 27//15
f  28//16 10//16 9//16
f  2//17 29//17 3//17
f  29//18 11//18 3//18
f  30//19 16//19 15//19
f  31//20 32//20 33//20
f  34//21 35//21 36//21
f  37//22 3//22 38//22
f  6//23 39//23 40//23
f  25//24 8//24 5//24
f  41//25 42//25 16//25
f  18//26 14//26 43//26
f  22//27 24//27 44//27
f  44//28 45//28 22//28
f  46//29 22//29 45//29
f  45//30 47//30 46//30
f  20//31 8//31 48//31
f  9//32 11//32 15//32
f  36//33 10//33 49//33
f  50//34 28//34 9//34
f  10//35 36//35 35//35
f  12//36 37//36 32//36
f  37//37 12//37 3//37
f  37//38 38//38 51//38
f  37//39 52//39 32//39
f  52//40 37//40 51//40
f  10//41 35//41 53//41
f  10//42 53//42 38//42
f  10//43 38//43 3//43
f  54//44 35//44 34//44
f  55//45 56//45 57//45
f  56//46 55//46 58//46
f  57//47 54//47 34//47
f  39//48 6//48 21//48
f  59//49 18//49 43//49
f  40//50 39//50 43//50
f  14//51 40//51 43//51
f  14//52 6//52 40//52
f  60//53 25//53 5//53
f  59//54 61//54 17//54
f  42//55 60//55 5//55
f  16//56 42//56 17//56
f  62//57 22//57 46//57
f  22//58 62//58 23//58
f  1//59 46//59 63//59
f  47//60 63//60 46//60
f  25//61 64//61 8//61
f  64//62 25//62 27//62
f  64//63 48//63 8//63
f  65//64 59//64 43//64
f  66//65 36//65 49//65
f  63//66 2//66 1//66
f  33//67 32//67 67//67
f  68//68 62//68 46//68
f  32//69 69//69 12//69
f  70//70 71//70 67//70
f  53//71 35//71 54//71
f  72//72 73//72 74//72
f  75//73 76//73 77//73
f  78//74 55//74 34//74
f  55//75 79//75 58//75
f  4//76 42//76 5//76
f  50//77 15//77 17//77
f  59//78 17//78 18//78
f  7//79 20//79 77//79
f  24//80 26//80 44//80
f  27//81 26//81 24//81
f  45//82 80//82 47//82
f  41//83 16//83 81//83
f  82//84 71//84 70//84
f  62//85 83//85 23//85
f  33//86 84//86 83//86
f  49//87 28//87 61//87
f  61//88 28//88 50//88
f  61//89 50//89 17//89
f  63//90 85//90 29//90
f  85//91 30//91 15//91
f  80//92 85//92 63//92
f  85//93 80//93 30//93
f  9//94 15//94 50//94
f  85//95 15//95 11//95
f  11//96 29//96 85//96
f  83//97 62//97 68//97
f  34//98 36//98 78//98
f  70//99 67//99 86//99
f  71//100 33//100 67//100
f  58//101 76//101 72//101
f  73//102 87//102 88//102
f  72//103 74//103 56//103
f  56//104 74//104 57//104
f  34//105 55//105 57//105
f  21//106 79//106 55//106
f  21//107 7//107 79//107
f  89//108 73//108 90//108
f  39//109 21//109 55//109
f  91//110 82//110 70//110
f  84//111 23//111 83//111
f  28//112 49//112 10//112
f  92//113 80//113 93//113
f  31//114 33//114 68//114
f  68//115 33//115 83//115
f  51//116 86//116 52//116
f  69//117 32//117 31//117
f  46//118 94//118 68//118
f  94//119 31//119 68//119
f  94//120 12//120 69//120
f  76//121 75//121 72//121
f  90//122 53//122 89//122
f  86//123 51//123 88//123
f  75//124 70//124 87//124
f  87//125 70//125 88//125
f  95//126 55//126 78//126
f  39//127 55//127 95//127
f  14//128 18//128 13//128
f  42//129 41//129 60//129
f  19//130 17//130 42//130
f  19//131 4//131 13//131
f  45//132 93//132 80//132
f  92//133 93//133 81//133
f  16//134 30//134 92//134
f  92//135 81//135 16//135
f  96//136 77//136 20//136
f  66//137 59//137 65//137
f  65//138 78//138 66//138
f  59//139 66//139 61//139
f  49//140 61//140 66//140
f  2//141 63//141 29//141
f  80//142 63//142 47//142
f  80//143 92//143 30//143
f  78//144 36//144 66//144
f  94//145 69//145 31//145
f  94//146 46//146 1//146
f  12//147 94//147 1//147
f  70//148 86//148 88//148
f  67//149 52//149 86//149
f  52//150 67//150 32//150
f  57//151 89//151 54//151
f  53//152 90//152 38//152
f  90//153 51//153 38//153
f  75//154 87//154 72//154
f  72//155 87//155 73//155
f  56//156 58//156 72//156
f  42//157 4//157 19//157
f  19//158 18//158 17//158
f  97//159 81//159 44//159
f  81//160 93//160 44//160
f  41//161 97//161 60//161
f  26//162 97//162 44//162
f  98//163 99//163 91//163
f  100//164 33//164 71//164
f  84//165 33//165 100//165
f  96//166 75//166 77//166
f  95//167 78//167 65//167
f  73//168 89//168 74//168
f  53//169 54//169 89//169
f  73//170 88//170 51//170
f  90//171 73//171 51//171
f  41//172 81//172 97//172
f  44//173 93//173 45//173
f  25//174 97//174 26//174
f  101//175 48//175 64//175
f  64//176 27//176 101//176
f  102//177 48//177 101//177
f  96//178 98//178 91//178
f  48//179 99//179 20//179
f  99//180 98//180 20//180
f  98//181 96//181 20//181
f  96//182 91//182 75//182
f  84//183 101//183 23//183
f  27//184 24//184 101//184
f  89//185 57//185 74//185
f  77//186 76//186 79//186
f  79//187 76//187 58//187
f  79//188 7//188 77//188
f  102//189 84//189 100//189
f  91//190 99//190 82//190
f  48//191 100//191 99//191
f  100//192 48//192 102//192
f  75//193 91//193 70//193
f  84//194 102//194 101//194
f  24//195 23//195 101//195
f  43//196 95//196 65//196
f  25//197 60//197 97//197
f  82//198 100//198 71//198
f  43//199 39//199 95//199
f  100//200 82//200 99//200

