# https://github.com/mikedh/trimesh
mtllib hand_0_from_obj.mtl
usemtl material_0
v 0.01525500 -0.06846300 0.02643800
v 0.01525500 -0.06962700 0.02613600
v 0.01525600 0.06845600 0.02644100
v 0.01525400 0.06938500 0.01339000
v 0.01525400 0.07093400 0.01820800
v 0.01525500 0.07196200 0.02213600
v 0.01525500 0.07189200 0.02323400
v 0.01525500 0.07155200 0.02429100
v 0.01525500 0.07087700 0.02522400
v 0.01525500 0.07016000 0.02582700
v 0.01525500 -0.07078900 0.02532300
v 0.01525500 -0.07159000 0.02423400
v 0.01525500 0.06931900 0.02623500
v 0.01525500 -0.06638600 0.01107000
v 0.01525500 0.06630700 0.01106100
v 0.01525500 -0.07197300 0.02268900
v 0.01525500 -0.07185600 0.02158600
v 0.01525400 0.06754800 0.01146300
v 0.01525500 0.06862300 0.01224500
v 0.01525500 -0.06930700 0.01320600
v 0.01525500 -0.06847200 0.01210900
v 0.01525500 -0.06758700 0.01148800
v 0.01525500 -0.07075300 0.01761800
v -0.01525500 -0.06846300 0.02643800
v -0.01525500 -0.06962700 0.02613600
v -0.01525600 0.06845600 0.02644100
v -0.01525400 0.06938500 0.01339000
v -0.01525400 0.07093400 0.01820800
v -0.01525500 0.07196200 0.02213600
v -0.01525500 0.07189200 0.02323400
v -0.01525500 0.07155200 0.02429100
v -0.01525500 0.07087700 0.02522400
v -0.01525500 0.07016000 0.02582700
v -0.01525500 -0.07078900 0.02532300
v -0.01525500 -0.07159000 0.02423400
v -0.01525500 0.06931900 0.02623500
v -0.01525500 -0.06638600 0.01107000
v -0.01525500 0.06630700 0.01106100
v -0.01525500 -0.07197300 0.02268900
v -0.01525500 -0.07185600 0.02158600
v -0.01525400 0.06754800 0.01146300
v -0.01525500 0.06862300 0.01224500
v -0.01525500 -0.06930700 0.01320600
v -0.01525500 -0.06847200 0.01210900
v -0.01525500 -0.06758700 0.01148800
v -0.01525500 -0.07075300 0.01761800
vn 1.00000000 -0.00000000 -0.00000000
vn 1.00000000 -0.00000000 -0.00000000
vn 1.00000000 0.00020000 0.00010000
vn 1.00000000 0.00070000 -0.00060000
vn 1.00000000 -0.00020000 -0.00020000
vn 1.00000000 0.00020000 0.00010000
vn 1.00000000 -0.00000000 -0.00000000
vn 1.00000000 0.00020000 0.00010000
vn 1.00000000 -0.00000000 -0.00000000
vn 1.00000000 -0.00000000 -0.00000000
vn 1.00000000 -0.00010000 0.00010000
vn 1.00000000 -0.00040000 0.00030000
vn 1.00000000 0.00020000 0.00010000
vn 1.00000000 0.00070000 0.00060000
vn 1.00000000 0.00070000 -0.00060000
vn 1.00000000 -0.00040000 0.00030000
vn 1.00000000 -0.00010000 0.00010000
vn 1.00000000 0.00070000 -0.00060000
vn 1.00000000 -0.00200000 0.00190000
vn 1.00000000 0.00040000 0.00020000
vn 1.00000000 -0.00060000 -0.00070000
vn 1.00000000 -0.00060000 -0.00070000
vn 1.00000000 -0.00000000 -0.00000000
vn -1.00000000 0.00010000 0.00000000
vn -1.00000000 -0.00000000 -0.00000000
vn -1.00000000 -0.00000000 -0.00000000
vn -1.00000000 -0.00200000 0.00190000
vn -1.00000000 0.00030000 -0.00010000
vn -1.00000000 -0.00020000 -0.00020000
vn -1.00000000 0.00030000 0.00020000
vn -1.00000000 0.00020000 0.00010000
vn -1.00000000 0.00020000 0.00010000
vn -1.00000000 -0.00000000 -0.00000000
vn -1.00000000 -0.00010000 0.00010000
vn -1.00000000 -0.00040000 0.00030000
vn -1.00000000 -0.00000000 -0.00000000
vn -1.00000000 0.00070000 0.00060000
vn -1.00000000 0.00030000 -0.00010000
vn -1.00000000 0.00010000 0.00000000
vn -1.00000000 0.00010000 0.00000000
vn -1.00000000 -0.00200000 0.00190000
vn -1.00000000 -0.00200000 0.00190000
vn -1.00000000 -0.00060000 -0.00070000
vn -1.00000000 -0.00060000 -0.00070000
vn -1.00000000 -0.00060000 -0.00070000
vn -1.00000000 0.00040000 0.00020000
vt 0.99996723 0.02438601
vt 0.99996723 0.01629902
vt 1.00000000 0.97564178
vt 0.99993445 0.98209609
vt 0.99993445 0.99285789
vt 0.99996723 1.00000000
vt 0.99996723 0.99951367
vt 0.99996723 0.99715149
vt 0.99996723 0.99246188
vt 0.99996723 0.98748046
vt 0.99996723 0.00822594
vt 0.99996723 0.00266092
vt 0.99996723 0.98163754
vt 0.99996723 0.03881613
vt 0.99996723 0.96071143
vt 0.99996723 0.00000000
vt 0.99996723 0.00081287
vt 0.99993445 0.96933338
vt 0.99996723 0.97680203
vt 0.99996723 0.01852225
vt 0.99996723 0.02432348
vt 0.99996723 0.03047209
vt 0.99996723 0.00847605
vt 0.00003277 0.02438601
vt 0.00003277 0.01629902
vt 0.00000000 0.97564178
vt 0.00006555 0.98209609
vt 0.00006555 0.99285789
vt 0.00003277 1.00000000
vt 0.00003277 0.99951367
vt 0.00003277 0.99715149
vt 0.00003277 0.99246188
vt 0.00003277 0.98748046
vt 0.00003277 0.00822594
vt 0.00003277 0.00266092
vt 0.00003277 0.98163754
vt 0.00003277 0.03881613
vt 0.00003277 0.96071143
vt 0.00003277 0.00000000
vt 0.00003277 0.00081287
vt 0.00006555 0.96933338
vt 0.00003277 0.97680203
vt 0.00003277 0.01852225
vt 0.00003277 0.02432348
vt 0.00003277 0.03047209
vt 0.00003277 0.00847605
f 15/15/15 3/3/3 1/1/1
f 26/26/26 38/38/38 24/24/24
f 13/13/13 3/3/3 6/6/6
f 1/1/1 2/2/2 11/11/11
f 11/11/11 12/12/12 16/16/16
f 16/16/16 17/17/17 11/11/11
f 23/23/23 20/20/20 14/14/14
f 21/21/21 22/22/22 20/20/20
f 14/14/14 15/15/15 1/1/1
f 18/18/18 19/19/19 4/4/4
f 4/4/4 15/15/15 18/18/18
f 6/6/6 7/7/7 13/13/13
f 8/8/8 9/9/9 7/7/7
f 10/10/10 13/13/13 9/9/9
f 1/1/1 11/11/11 17/17/17
f 17/17/17 23/23/23 1/1/1
f 22/22/22 14/14/14 20/20/20
f 4/4/4 5/5/5 15/15/15
f 7/7/7 9/9/9 13/13/13
f 3/3/3 15/15/15 5/5/5
f 23/23/23 14/14/14 1/1/1
f 5/5/5 6/6/6 3/3/3
f 45/45/45 44/44/44 43/43/43
f 43/43/43 46/46/46 37/37/37
f 40/40/40 39/39/39 34/34/34
f 35/35/35 34/34/34 39/39/39
f 25/25/25 24/24/24 34/34/34
f 26/26/26 36/36/36 30/30/30
f 33/33/33 32/32/32 36/36/36
f 31/31/31 30/30/30 32/32/32
f 29/29/29 26/26/26 30/30/30
f 27/27/27 42/42/42 41/41/41
f 41/41/41 38/38/38 27/27/27
f 37/37/37 45/45/45 43/43/43
f 46/46/46 40/40/40 24/24/24
f 34/34/34 24/24/24 40/40/40
f 36/36/36 32/32/32 30/30/30
f 29/29/29 28/28/28 26/26/26
f 27/27/27 38/38/38 28/28/28
f 37/37/37 46/46/46 24/24/24
f 24/24/24 38/38/38 37/37/37
f 28/28/28 38/38/38 26/26/26

