# File produced by Open Asset Import Library (http://www.assimp.sf.net)
# (assimp v5.2.0)

mtllib link7.mtl

# 102 vertex positions
v  -0.000488742022 0.0308252703 0.106799699
v  0.0310869161 -0.00149676006 0.106799029
v  0.0220504273 0.0223624893 0.106818065
v  -0.00101813173 -0.0440296121 0.0520710014
v  -0.00260753743 -0.0438518822 0.0966743752
v  -0.0353104398 -0.0407374315 0.0846138149
v  -0.014643277 0.0269626155 0.106820822
v  -0.0225320607 0.020709319 0.10680031
v  0.0808787197 0.0373056754 0.0904426873
v  0.0790707245 0.0350774303 0.0944920629
v  0.0333840959 -0.0286516547 0.0966785774
v  0.0807951018 0.0366702601 0.0823240876
v  0.0346352868 -0.0272281673 0.0521236099
v  0.0277464204 -0.034283001 0.0520519502
v  0.0437682718 -0.00346765784 0.0520003922
v  0.0425350182 0.0120747602 0.0520024821
v  0.079327777 0.0370214134 0.0766470879
v  0.0667820945 0.0540207177 0.0943866521
v  0.0550826862 0.0674648955 0.0927696973
v  0.0499376915 0.0697116479 0.094903551
v  -0.0307551902 -0.00373941101 0.10680446
v  -0.0285066776 0.0114343585 0.106801882
v  0.0776370391 0.0357091352 0.0959910825
v  0.0244647004 -0.0185901094 0.106837228
v  0.0159692708 -0.0261119138 0.106800467
v  0.0270707924 -0.0345395803 0.0967675373
v  0.0789525509 0.0383087657 0.0947032347
v  0.0797987878 0.0370608978 0.0941077694
v  0.0623015165 0.0558765121 0.0958237946
v  0.0352561511 0.0775291696 0.0960570425
v  -0.00294572767 0.0438202582 0.0520001501
v  0.0369473584 0.0793805942 0.0766672567
v  0.0137096969 0.0420133732 0.0520025715
v  -0.0407117493 -0.0355044901 0.0847137123
v  -0.0299748816 -0.0321945809 0.0520389937
v  -0.0364266559 -0.0395011343 0.0890788287
v  -0.0378942415 -0.0379896872 0.0897262841
v  -0.0111965183 -0.0422988348 0.0969776139
v  -0.0117818667 -0.0424085595 0.0520547256
v  0.00201319344 -0.0438275747 0.0968042985
v  0.0085169822 -0.0432627015 0.0521052852
v  0.0182618741 -0.0401269123 0.0521010682
v  0.0149761746 -0.0412284732 0.0968407393
v  -0.00527337519 -0.0303377882 0.106803425
v  0.00688889483 -0.0299083367 0.106800497
v  0.0215296447 -0.0382743329 0.0966889858
v  0.0803598464 0.0390828811 0.0925136581
v  0.0730594918 0.0503520593 0.0885560736
v  0.0726204142 0.0486780293 0.0931462273
v  0.0813061297 0.0397234969 0.0858213454
v  0.0405874848 -0.0172366891 0.0520400852
v  -0.0132718869 0.0418745838 0.0520048738
v  -0.0232012998 0.0374665074 0.052086018
v  -0.0274945162 0.0342044719 0.0967547596
v  -0.0287565812 0.0333258808 0.0521096773
v  0.0351785757 0.0794492736 0.0938294381
v  0.0381796658 0.0804770887 0.0928218588
v  0.037544094 0.0809631571 0.0892689824
v  0.0311506763 0.0312146526 0.0519905314
v  0.0729744732 0.0470589772 0.0773063675
v  -0.0429600291 0.00904091727 0.0968201905
v  -0.0396663845 -0.0362739712 0.0888324305
v  -0.0370132439 -0.0238849986 0.0520710349
v  -0.0427250192 -0.0104429247 0.0520636067
v  -0.0214650072 -0.0383733809 0.0520041399
v  -0.0238942076 -0.0193544831 0.106802292
v  -0.0157063659 -0.0262496509 0.106800549
v  -0.0390051119 -0.0187340323 0.0975685939
v  -0.0199611913 -0.0387507007 0.0971671864
v  0.077095978 0.0452156179 0.0821724907
v  0.0808735713 0.0391078703 0.0799789354
v  0.0742007867 0.0478683487 0.0796637759
v  0.0643523112 0.0579626486 0.078304328
v  0.0466948859 0.0754550621 0.0906014368
v  0.0389721654 0.079641901 0.0936916098
v  0.0381516851 0.0804928839 0.0783622339
v  0.0396560095 0.0810869634 0.0816278234
v  0.0457584821 0.0751360729 0.0784035623
v  0.0496748127 0.0697964504 0.0766427219
v  0.0638132989 0.0558120608 0.0764421597
v  0.0369353145 0.0789816007 0.095028609
v  -0.0318756253 0.0301786587 0.0967075229
v  -0.0432663858 0.00852551032 0.0520972833
v  -0.043903783 0.00241423142 0.0966491029
v  -0.0440345891 -0.00161987962 0.052073732
v  0.00836648885 -0.0431500748 0.0966078267
v  0.080019407 0.0363090523 0.0781461373
v  0.0547645018 0.0679226145 0.0790980011
v  0.0651405752 0.0591061451 0.0815885067
v  0.0547974482 0.0692775995 0.0824129879
v  0.0670450702 0.0562408268 0.0915286317
v  0.0586818345 0.0656703711 0.0883482173
v  0.0393552892 0.081096597 0.0893722177
v  0.0353472978 0.0798510835 0.0793868601
v  -0.0344727784 0.0275317747 0.0521081872
v  -0.0365699902 0.0244655125 0.0965583101
v  -0.0400377512 0.0184773654 0.0520948209
v  -0.0433575138 -0.00663926592 0.0968222246
v  0.0399857946 0.0811873078 0.0857673138
v  -0.0400851741 0.0177375227 0.0969034955
v  0.0378480144 0.0811306611 0.0825676024
v  0.0798357055 0.0386274979 0.0777565613

# 0 UV coordinates

# 200 vertex normals
vn -0.001299183 -0.00128989643 0.999998331
vn -0.0950179175 -0.995475352 0.000580764667
vn 0.00364230201 -0.00787278172 0.99996233
vn 0.81267494 -0.581122756 0.0430776998
vn 0.812605262 -0.581629097 0.037152689
vn 0.80971086 -0.586815536 0.00399008533
vn 0.715481937 -0.69862777 -0.00222833781
vn 0.535892367 0.0426350087 -0.843209147
vn 0.511576712 0.526825249 0.678781569
vn -5.82400462e-05 0.000189700426 0.999999881
vn -6.67111681e-06 0.000170009953 1
vn 0.510957718 -0.34290275 0.788251221
vn 0.390511841 -0.444997609 0.805901825
vn 0.577955663 -0.389725387 0.716994643
vn 0.633477509 0.0615444258 0.771309674
vn 0.13525714 0.158407554 0.97806567
vn 0.0570798405 0.525013447 -0.849177718
vn -0.668852985 -0.684852242 -0.28915906
vn -0.714078426 -0.699898899 0.0152796693
vn -0.175747499 -0.959159851 0.221641913
vn -0.167192996 -0.964529693 0.204277024
vn -0.14860031 -0.987269759 -0.0567124747
vn 0.0801745281 -0.996780336 -0.000930918613
vn 0.3063187 -0.951928556 -0.000941964507
vn 0.00514322845 -0.999978125 0.00416763127
vn -0.0820669234 -0.608044624 0.789649725
vn 0.228307813 -0.5460639 0.806033432
vn 0.263141185 -0.542785168 0.797584414
vn 0.411089003 -0.911562324 0.00774649438
vn 0.754710853 0.589807808 0.287294775
vn 0.985703945 -0.168459341 0.00303203939
vn 0.0652721673 0.175972551 0.982228696
vn 0.175548837 0.0657038838 0.982275724
vn 0.331682116 -0.508815646 0.794414043
vn 0.314292729 -0.11965704 0.941754878
vn 0.678110361 -0.158719331 -0.717617273
vn -0.123877279 0.655644178 -0.744839072
vn -0.358308166 0.798189998 -0.484260201
vn -0.597607613 0.801787913 0.00111498591
vn -0.265144885 0.947803557 0.177105933
vn 0.417544633 0.247808516 -0.874212563
vn 0.402893692 0.311537534 -0.860593498
vn -0.575732172 0.0854523033 0.813160598
vn -0.70239234 -0.711266458 0.0272960383
vn -0.894177735 -0.380083084 -0.236607134
vn -0.373888016 -0.900019646 -0.223992452
vn 0.000148868508 -7.18909068e-05 1
vn -0.498617858 -0.351475358 0.792366922
vn -0.514646053 -0.226241231 0.827015281
vn -0.278439105 -0.721666336 0.633773804
vn 0.959046483 -0.0457330607 0.279532552
vn -0.0741981044 0.277134627 0.957961857
vn 0.768813848 0.57557559 -0.278635949
vn 0.643182814 0.556718409 -0.525719106
vn 0.557612956 0.704501688 0.439027399
vn 0.515734971 0.639134347 0.57054776
vn 0.692805111 -0.116426773 0.71166414
vn 0.159543335 0.129436806 0.978668451
vn 0.533283532 0.754323006 -0.382890821
vn 0.256957889 0.415984988 -0.872312427
vn 0.303519785 0.405272424 -0.862339795
vn 0.394862443 0.328562111 -0.85798049
vn -0.120826453 0.852066934 0.509296477
vn 0.359640926 0.493760675 0.791744113
vn 0.254735231 0.345119774 0.903328478
vn -0.241209492 0.730915964 0.638419867
vn -0.453962028 0.667026699 0.590757132
vn -0.676638603 0.736300647 0.00463772658
vn -0.990016043 0.140861079 0.00515835965
vn -0.591261923 0.0634490103 0.803979814
vn -0.694800615 -0.717962563 0.0422136635
vn -0.997137189 0.0755122155 -0.00390778854
vn -0.728100479 -0.615550697 -0.3016074
vn -0.987855136 -0.146564052 -0.0515866391
vn -0.562229693 -0.772679508 -0.294727206
vn -0.20819442 -0.55723542 0.803830683
vn -0.215357721 -0.549028158 0.8075822
vn -0.653792202 -0.317458749 0.68685925
vn 0.279055566 -0.960269034 0.00337403594
vn 0.10612385 -0.994348764 0.00287563074
vn -0.0192745402 -0.602073252 0.798208237
vn 0.799308479 0.576888323 0.168243185
vn 0.556414425 0.4451316 0.701612949
vn 0.824662089 0.552898049 -0.119316012
vn 0.345619678 0.270270437 0.898610592
vn 0.833852351 -0.498726398 -0.236563072
vn 0.968373477 -0.188471422 -0.163497418
vn 0.993596017 -0.0933011472 -0.0637324974
vn 0.789008021 -0.327642798 -0.519727349
vn 0.649617374 0.655969739 -0.384319007
vn 0.659148037 0.693791509 -0.290133327
vn 0.673709035 0.688274503 0.269062012
vn 0.417316705 -0.435413986 0.797659993
vn 0.648209572 0.484096378 0.587771356
vn -0.0811149999 0.985454738 0.14932923
vn -0.587209821 0.809430361 0.00267230626
vn -0.584772706 0.811044514 0.0157332122
vn -0.514321208 0.85741204 0.0178456269
vn -0.338801712 0.5035128 0.794788182
vn -0.71187669 0.702304542 -0.000225696669
vn -0.77270472 0.634723365 0.00732734054
vn -0.851941288 0.52362138 -0.00407514954
vn -0.789518893 -0.249511927 0.560717165
vn -0.380959362 -0.452585548 0.806248307
vn -0.323009253 -0.619948685 0.715072513
vn -0.35108608 -0.493637651 0.795650959
vn 0.0886774138 -0.601327777 0.79406625
vn 0.00387508818 -0.00926643331 0.999949515
vn 0.000197599875 0.00120894029 0.999999285
vn -0.0047003529 0.0040563033 0.999980748
vn -2.77200197e-05 -0.000193131244 1
vn 0.0209580362 -0.588023305 0.808572531
vn 0.524556279 -0.851370275 -0.00307020149
vn 0.558865428 -0.829250216 0.00368576078
vn 0.982327878 0.112400554 0.149659619
vn 0.923113286 -0.289889127 0.252638549
vn 0.434443325 0.440493762 0.785636246
vn 0.829220235 -0.548677742 -0.106519826
vn 0.68703419 0.619064867 -0.380450696
vn 0.747934163 0.635713339 -0.190952957
vn 0.738896072 0.607201815 0.292127371
vn 0.205913886 0.24699834 0.94688499
vn 0.484458029 0.500092089 -0.717780173
vn 0.518349707 0.551086247 -0.653924823
vn 0.516865849 0.585151672 -0.624857724
vn 0.609561443 0.731665254 -0.305124044
vn 0.60293144 0.756137609 -0.254419953
vn 0.641205311 0.733923733 0.224079564
vn 0.635666192 0.771285415 0.0323612727
vn 0.633198261 0.77204597 0.0548189133
vn 0.615767956 0.784980178 -0.0680862144
vn -0.57901293 0.183796704 0.79433167
vn 0.773550153 0.24586232 0.584099293
vn -0.41552797 0.823197603 -0.386887878
vn -0.327306598 0.879775107 -0.344769597
vn -0.0560275763 0.986533999 -0.15366061
vn -0.457031786 0.889449179 0.00150426361
vn 0.358247429 0.37446034 -0.855241716
vn -0.886157155 0.4633362 0.00671236077
vn -0.961392045 -0.176636145 0.211009324
vn -0.589234829 -0.163209483 0.79130584
vn -0.617607117 -0.0222320203 0.78617245
vn 0.637666166 0.578809023 0.508293331
vn 0.612833798 0.595740914 0.519160271
vn 0.410811573 0.335300207 0.847825229
vn 0.699971855 0.713756621 -0.0243096519
vn 0.791041374 0.611710429 0.00799428485
vn 0.723478079 0.680618644 0.115489043
vn 0.75810647 0.65063417 -0.0441554599
vn 0.420663476 0.592046022 -0.687403679
vn 0.591665864 0.796662986 0.12352933
vn -0.479539335 0.373284638 0.794166684
vn -0.514688373 0.309923112 0.799401999
vn -0.500145912 0.322314441 0.803721011
vn -0.0746800005 0.996975064 0.0215338599
vn 0.405647427 0.540574908 -0.737040579
vn 0.907629192 -0.00211278675 -0.419767529
vn 0.905483603 0.00676976005 -0.424327254
vn 0.510138869 0.373775452 -0.774629116
vn 0.148955747 0.777548552 0.610925972
vn 0.540487766 0.796157062 0.272041947
vn 0.541855991 0.775535941 0.32393831
vn -0.36955595 0.463568449 0.805315256
vn 0.144604862 -0.593369544 0.791834533
vn -0.0507768393 0.998577893 0.0162438676
vn 0.0111049153 0.999622881 -0.0251133777
vn -0.276492864 0.946991265 -0.163582802
vn 0.523877978 0.478740722 -0.704527676
vn -0.413677067 0.440838873 0.796575367
vn -0.94947046 0.313828439 0.00417680107
vn -0.951190114 0.308591306 0.00295940507
vn 0.728559613 0.684250414 0.0316587202
vn 0.682073593 -0.731258154 0.00610972382
vn 0.672327578 0.518930256 -0.527908266
vn 0.718111515 0.530785263 -0.450092047
vn -0.998159349 -0.0600664206 0.0083651999
vn -0.995637357 -0.0931937322 0.00461124768
vn 0.000136799805 -7.93584768e-05 -1
vn 0.000138395859 0.0100218002 -0.999949753
vn 0.000317295286 -0.000435575756 -0.999999881
vn -0.000123802689 0.000124614133 -1
vn 0.00209299522 -0.00784995779 -0.999966919
vn -0.00797426328 -0.0039412342 -0.999960482
vn -0.00497711822 0.000965625164 -0.999987185
vn -0.00111652585 0.00135842524 -0.999998391
vn -0.00160050241 0.000909853261 -0.999998271
vn 0.00352269341 0.00091167615 -0.999993384
vn 0.00193062949 -0.0115374448 -0.999931574
vn -0.000467545062 5.69448348e-05 -0.999999821
vn -0.000552981743 0.000222325834 -0.999999762
vn 0.000619162864 0.00227440265 -0.999997139
vn -0.000587545976 -0.0139473518 -0.999902487
vn 0.00169422396 -0.0032742098 -0.999993265
vn -0.00856364612 0.000883511908 -0.999962866
vn -0.000126857354 0.00155382138 -0.999998868
vn -0.00336523331 0.001004691 -0.999993861
vn 0.00429861341 -0.0109199658 -0.999931097
vn -0.00282896869 0.00067060662 -0.999995708
vn 3.96545038e-05 1.79364033e-05 1
vn 0.00012457995 2.83074842e-05 1

# Mesh '' with 200 faces
usemtl DefaultMaterial
f  1//1 2//1 3//1
f  4//2 5//2 6//2
f  7//3 8//3 1//3
f  9//4 10//4 11//4
f  9//5 11//5 12//5
f  11//6 13//6 12//6
f  14//7 13//7 11//7
f  15//8 16//8 17//8
f  18//9 19//9 20//9
f  1//10 8//10 21//10
f  21//11 8//11 22//11
f  23//12 24//12 11//12
f  24//13 25//13 26//13
f  23//14 11//14 10//14
f  27//15 23//15 28//15
f  3//16 29//16 30//16
f  31//17 32//17 33//17
f  6//18 34//18 35//18
f  6//19 36//19 37//19
f  36//20 6//20 38//20
f  5//21 38//21 6//21
f  39//22 4//22 6//22
f  40//23 4//23 41//23
f  41//24 42//24 43//24
f  40//25 5//25 4//25
f  38//26 5//26 44//26
f  45//27 43//27 25//27
f  43//28 46//28 25//28
f  42//29 46//29 43//29
f  47//30 48//30 49//30
f  9//31 12//31 50//31
f  1//32 3//32 30//32
f  2//33 23//33 3//33
f  25//34 46//34 26//34
f  2//35 24//35 23//35
f  51//36 15//36 17//36
f  32//37 31//37 52//37
f  32//38 52//38 53//38
f  54//39 53//39 55//39
f  56//40 57//40 58//40
f  17//41 16//41 59//41
f  59//42 60//42 17//42
f  22//43 61//43 21//43
f  37//44 62//44 6//44
f  63//45 34//45 64//45
f  39//46 6//46 65//46
f  21//47 66//47 67//47
f  66//48 68//48 37//48
f  66//49 21//49 68//49
f  38//50 69//50 36//50
f  9//51 47//51 28//51
f  30//52 7//52 1//52
f  70//53 71//53 72//53
f  73//54 72//54 60//54
f  19//55 74//55 75//55
f  75//56 20//56 19//56
f  28//57 23//57 10//57
f  23//58 29//58 3//58
f  76//59 77//59 78//59
f  33//60 32//60 59//60
f  32//61 79//61 59//61
f  80//62 60//62 59//62
f  81//63 57//63 56//63
f  20//64 75//64 81//64
f  20//65 81//65 30//65
f  30//66 81//66 56//66
f  54//67 30//67 56//67
f  55//68 82//68 54//68
f  61//69 83//69 84//69
f  61//70 84//70 21//70
f  62//71 34//71 6//71
f  85//72 84//72 83//72
f  34//73 63//73 35//73
f  85//74 64//74 34//74
f  35//75 65//75 6//75
f  44//76 69//76 38//76
f  67//77 69//77 44//77
f  68//78 62//78 37//78
f  41//79 43//79 86//79
f  41//80 86//80 40//80
f  40//81 44//81 5//81
f  47//82 50//82 48//82
f  49//83 18//83 27//83
f  50//84 71//84 70//84
f  23//85 27//85 29//85
f  51//86 87//86 13//86
f  71//87 12//87 87//87
f  50//88 12//88 71//88
f  17//89 87//89 51//89
f  88//90 89//90 73//90
f  88//91 90//91 89//91
f  19//92 91//92 92//92
f  11//93 24//93 26//93
f  49//94 27//94 47//94
f  57//95 93//95 58//95
f  54//96 94//96 53//96
f  56//97 94//97 54//97
f  56//98 58//98 94//98
f  30//99 54//99 7//99
f  95//100 82//100 55//100
f  95//101 96//101 82//101
f  97//102 96//102 95//102
f  98//103 62//103 68//103
f  66//104 37//104 67//104
f  69//105 37//105 36//105
f  37//106 69//106 67//106
f  45//107 40//107 86//107
f  24//108 45//108 25//108
f  44//109 45//109 67//109
f  2//110 45//110 24//110
f  67//111 45//111 21//111
f  45//112 44//112 40//112
f  14//113 46//113 42//113
f  26//114 46//114 14//114
f  9//115 50//115 47//115
f  9//116 28//116 10//116
f  29//117 18//117 20//117
f  87//118 12//118 13//118
f  89//119 72//119 73//119
f  72//120 89//120 70//120
f  91//121 49//121 48//121
f  20//122 30//122 29//122
f  80//123 79//123 73//123
f  73//124 79//124 88//124
f  88//125 79//125 78//125
f  88//126 78//126 90//126
f  77//127 90//127 78//127
f  19//128 92//128 74//128
f  99//129 74//129 92//129
f  99//130 92//130 90//130
f  90//131 77//131 99//131
f  61//132 22//132 100//132
f  27//133 28//133 47//133
f  53//134 94//134 32//134
f  94//135 76//135 32//135
f  76//136 101//136 77//136
f  101//137 94//137 58//137
f  59//138 79//138 80//138
f  96//139 97//139 100//139
f  98//140 34//140 62//140
f  98//141 68//141 21//141
f  84//142 98//142 21//142
f  49//143 91//143 18//143
f  19//144 18//144 91//144
f  27//145 18//145 29//145
f  90//146 92//146 89//146
f  70//147 48//147 50//147
f  48//148 92//148 91//148
f  89//149 48//149 70//149
f  32//150 76//150 78//150
f  74//151 99//151 93//151
f  82//152 96//152 8//152
f  100//153 22//153 96//153
f  8//154 96//154 22//154
f  101//155 58//155 93//155
f  79//156 32//156 78//156
f  87//157 17//157 71//157
f  17//158 102//158 71//158
f  60//159 102//159 17//159
f  81//160 75//160 57//160
f  74//161 57//161 75//161
f  93//162 57//162 74//162
f  54//163 8//163 7//163
f  43//164 45//164 86//164
f  93//165 99//165 101//165
f  101//166 99//166 77//166
f  76//167 94//167 101//167
f  60//168 80//168 73//168
f  82//169 8//169 54//169
f  100//170 97//170 61//170
f  83//171 61//171 97//171
f  89//172 92//172 48//172
f  11//173 26//173 14//173
f  60//174 72//174 102//174
f  71//175 102//175 72//175
f  98//176 84//176 85//176
f  34//177 98//177 85//177
f  31//178 33//178 65//178
f  13//179 14//179 65//179
f  59//180 16//180 65//180
f  15//181 65//181 16//181
f  42//182 41//182 65//182
f  63//183 64//183 65//183
f  55//184 53//184 65//184
f  95//185 55//185 65//185
f  85//186 65//186 64//186
f  4//187 65//187 41//187
f  14//188 42//188 65//188
f  31//189 65//189 52//189
f  59//190 65//190 33//190
f  83//191 65//191 85//191
f  39//192 65//192 4//192
f  51//193 65//193 15//193
f  52//194 65//194 53//194
f  97//195 95//195 65//195
f  63//196 65//196 35//196
f  51//197 13//197 65//197
f  83//198 97//198 65//198
f  1//199 45//199 2//199
f  21//200 45//200 1//200

