# https://github.com/mikedh/trimesh
mtllib link6_12_from_obj.mtl
usemtl material_0
v 0.08738500 0.07734600 -0.02619700
v 0.08738500 0.07734600 -0.02619700
v 0.08815600 0.07722600 -0.02612400
v 0.08815600 0.07722600 -0.02612400
v 0.08815600 0.07722600 -0.02612400
v 0.08815600 0.07722600 -0.02612400
v 0.08771600 0.07718900 -0.02655000
v 0.08941600 0.07743300 -0.02422300
v 0.08941600 0.07743300 -0.02422300
v 0.08941600 0.07743300 -0.02422300
v 0.08974500 0.07729600 -0.02457100
v 0.08916900 0.07728200 -0.02513600
v 0.08916900 0.07728200 -0.02513600
v 0.08916900 0.07728200 -0.02513600
v 0.08739100 0.07752100 -0.02551400
v 0.08739100 0.07752100 -0.02551400
v 0.08705300 0.07749700 -0.02584300
v 0.08773300 0.07754000 -0.02518000
v 0.08773300 0.07754000 -0.02518000
v 0.08773300 0.07754000 -0.02518000
v 0.08860200 0.07725500 -0.02568900
v 0.08860200 0.07725500 -0.02568900
v 0.08807900 0.07755400 -0.02484200
v 0.08807900 0.07755400 -0.02484200
v 0.08842800 0.07756300 -0.02450000
v 0.08842800 0.07756300 -0.02450000
v 0.08842800 0.07756300 -0.02450000
v 0.08842800 0.07756300 -0.02450000
v 0.08842800 0.07756300 -0.02450000
v 0.08908300 0.07756600 -0.02387100
v 0.08908300 0.07756600 -0.02387100
v 0.08874400 0.07769400 -0.02351600
v 0.08874400 0.07769400 -0.02351600
v 0.08874400 0.07769400 -0.02351600
v 0.08874400 0.07769400 -0.02351600
v 0.08809300 0.07769700 -0.02414700
v 0.08809300 0.07769700 -0.02414700
v 0.08807600 0.07782400 -0.02347800
v 0.08807600 0.07782400 -0.02347800
v 0.08840200 0.07781800 -0.02315600
v 0.08775700 0.07782500 -0.02379300
vn 0.17290000 0.94970000 -0.26090000
vn 0.17250000 0.95380000 -0.24590000
vn 0.17290000 0.94970000 -0.26090000
vn 0.17910000 0.95470000 -0.23760000
vn 0.17160000 0.95520000 -0.24110000
vn 0.17210000 0.95390000 -0.24590000
vn 0.17290000 0.94970000 -0.26090000
vn 0.18140000 0.96450000 -0.19210000
vn 0.18570000 0.96000000 -0.20940000
vn 0.18050000 0.96130000 -0.20820000
vn 0.18050000 0.96130000 -0.20820000
vn 0.17810000 0.95730000 -0.22760000
vn 0.18050000 0.96130000 -0.20820000
vn 0.18570000 0.96000000 -0.20940000
vn 0.17250000 0.95380000 -0.24590000
vn 0.17910000 0.95470000 -0.23760000
vn 0.17250000 0.95380000 -0.24590000
vn 0.17910000 0.95470000 -0.23760000
vn 0.18130000 0.95720000 -0.22550000
vn 0.17160000 0.95520000 -0.24110000
vn 0.17810000 0.95730000 -0.22760000
vn 0.17160000 0.95520000 -0.24110000
vn 0.18270000 0.95990000 -0.21270000
vn 0.18130000 0.95720000 -0.22550000
vn 0.18140000 0.96450000 -0.19210000
vn 0.18570000 0.96000000 -0.20940000
vn 0.18270000 0.95990000 -0.21270000
vn 0.17380000 0.96740000 -0.18420000
vn 0.18650000 0.96430000 -0.18780000
vn 0.17380000 0.96740000 -0.18420000
vn 0.18140000 0.96450000 -0.19210000
vn 0.17770000 0.96770000 -0.17880000
vn 0.17900000 0.97000000 -0.16440000
vn 0.18650000 0.96430000 -0.18780000
vn 0.17380000 0.96740000 -0.18420000
vn 0.17770000 0.96770000 -0.17880000
vn 0.18650000 0.96430000 -0.18780000
vn 0.17900000 0.97000000 -0.16440000
vn 0.18020000 0.96730000 -0.17860000
vn 0.17900000 0.97000000 -0.16440000
vn 0.18020000 0.96730000 -0.17860000
vt 0.12332838 0.24685535
vt 0.12332838 0.24685535
vt 0.40973254 0.05817610
vt 0.40973254 0.05817610
vt 0.40973254 0.05817610
vt 0.40973254 0.05817610
vt 0.24628529 0.00000000
vt 0.87778603 0.38364780
vt 0.87778603 0.38364780
vt 0.87778603 0.38364780
vt 1.00000000 0.16823899
vt 0.78603269 0.14622642
vt 0.78603269 0.14622642
vt 0.78603269 0.14622642
vt 0.12555721 0.52201258
vt 0.12555721 0.52201258
vt 0.00000000 0.48427673
vt 0.25260030 0.55188679
vt 0.25260030 0.55188679
vt 0.25260030 0.55188679
vt 0.57540862 0.10377358
vt 0.57540862 0.10377358
vt 0.38112927 0.57389937
vt 0.38112927 0.57389937
vt 0.51077266 0.58805031
vt 0.51077266 0.58805031
vt 0.51077266 0.58805031
vt 0.51077266 0.58805031
vt 0.51077266 0.58805031
vt 0.75408618 0.59276730
vt 0.75408618 0.59276730
vt 0.62815750 0.79402516
vt 0.62815750 0.79402516
vt 0.62815750 0.79402516
vt 0.62815750 0.79402516
vt 0.38632987 0.79874214
vt 0.38632987 0.79874214
vt 0.38001486 0.99842767
vt 0.38001486 0.99842767
vt 0.50111441 0.98899371
vt 0.26151560 1.00000000
f 1/1/1 3/3/3 7/7/7
f 10/10/10 11/11/11 13/13/13
f 15/15/15 2/2/2 17/17/17
f 15/15/15 6/6/6 2/2/2
f 20/20/20 22/22/22 5/5/5
f 18/18/18 4/4/4 16/16/16
f 24/24/24 12/12/12 21/21/21
f 24/24/24 21/21/21 19/19/19
f 25/25/25 31/31/31 8/8/8
f 26/26/26 9/9/9 14/14/14
f 27/27/27 13/13/13 23/23/23
f 35/35/35 30/30/30 28/28/28
f 37/37/37 34/34/34 29/29/29
f 38/38/38 40/40/40 33/33/33
f 39/39/39 32/32/32 36/36/36
f 41/41/41 39/39/39 36/36/36

