# https://github.com/mikedh/trimesh
mtllib link6_7_from_obj.mtl
usemtl material_0
v 0.06278800 0.08158900 -0.00050000
v 0.06278800 0.08158900 -0.00050000
v 0.06278800 0.08158900 -0.00050000
v 0.06196700 0.08154300 -0.00050000
v 0.06196800 0.08154400 -0.00000000
v 0.06196800 0.08154400 -0.00000000
v 0.06382300 0.08162700 -0.00073800
v 0.06382300 0.08162700 -0.00073800
v 0.06382300 0.08162700 -0.00073800
v 0.06382300 0.08162700 -0.00073800
v 0.06365600 0.08161700 -0.00135000
v 0.06365600 0.08161700 -0.00135000
v 0.06322500 0.08160600 -0.00092700
v 0.06322500 0.08160600 -0.00092700
v 0.06322500 0.08160600 -0.00092700
v 0.06319700 0.08160800 -0.00012500
v 0.06319700 0.08160800 -0.00012500
v 0.06319700 0.08160800 -0.00012500
v 0.06319700 0.08160800 -0.00000000
v 0.06422200 0.08163600 -0.00079600
v 0.06422200 0.08163600 -0.00079600
v 0.06422200 0.08163600 -0.00079600
v 0.06432000 0.08164000 -0.00025000
v 0.06432000 0.08164000 -0.00025000
v 0.06477800 0.08164500 -0.00025000
v 0.06278800 0.08158900 0.00050000
v 0.06278800 0.08158900 0.00050000
v 0.06278800 0.08158900 0.00050000
v 0.06196700 0.08154300 0.00050000
v 0.06319700 0.08160800 0.00012500
v 0.06319700 0.08160800 0.00012500
v 0.06319700 0.08160800 0.00012500
v 0.06322500 0.08160600 0.00092700
v 0.06322500 0.08160600 0.00092700
v 0.06322500 0.08160600 0.00092700
v 0.06382300 0.08162700 0.00073800
v 0.06382300 0.08162700 0.00073800
v 0.06382300 0.08162700 0.00073800
v 0.06382300 0.08162700 0.00073800
v 0.06365600 0.08161700 0.00135000
v 0.06365600 0.08161700 0.00135000
v 0.06422200 0.08163600 0.00079500
v 0.06422200 0.08163600 0.00079500
v 0.06422200 0.08163600 0.00079500
v 0.06432000 0.08164000 0.00025000
v 0.06432000 0.08164000 0.00025000
v 0.06477800 0.08164500 0.00025000
vn -0.05590000 0.99840000 -0.00200000
vn -0.04540000 0.99900000 -0.00040000
vn -0.04210000 0.99910000 -0.00400000
vn -0.05590000 0.99840000 -0.00200000
vn -0.05180000 0.99860000 -0.00480000
vn -0.05590000 0.99840000 0.00200000
vn -0.02370000 0.99970000 -0.00890000
vn -0.03390000 0.99940000 -0.00370000
vn -0.02280000 0.99970000 -0.00280000
vn -0.03300000 0.99940000 -0.00640000
vn -0.03300000 0.99940000 -0.00640000
vn -0.02370000 0.99970000 -0.00890000
vn -0.03390000 0.99940000 -0.00370000
vn -0.03300000 0.99940000 -0.00640000
vn -0.04210000 0.99910000 -0.00400000
vn -0.04210000 0.99910000 -0.00400000
vn -0.04540000 0.99900000 -0.00040000
vn -0.03390000 0.99940000 -0.00370000
vn -0.05180000 0.99860000 -0.00480000
vn -0.02370000 0.99970000 -0.00890000
vn -0.02280000 0.99970000 -0.00280000
vn -0.01250000 0.99990000 -0.00460000
vn -0.02280000 0.99970000 -0.00280000
vn -0.01250000 0.99990000 -0.00460000
vn -0.01250000 0.99990000 -0.00460000
vn -0.05590000 0.99840000 0.00200000
vn -0.05180000 0.99860000 -0.00480000
vn -0.04210000 0.99910000 0.00400000
vn -0.05590000 0.99840000 0.00200000
vn -0.04540000 0.99900000 0.00040000
vn -0.04210000 0.99910000 0.00400000
vn -0.03390000 0.99940000 0.00370000
vn -0.03390000 0.99940000 0.00370000
vn -0.03300000 0.99940000 0.00640000
vn -0.04210000 0.99910000 0.00400000
vn -0.03390000 0.99940000 0.00370000
vn -0.03300000 0.99940000 0.00640000
vn -0.02280000 0.99970000 0.00280000
vn -0.02360000 0.99970000 0.00890000
vn -0.03300000 0.99940000 0.00640000
vn -0.02360000 0.99970000 0.00890000
vn -0.02280000 0.99970000 0.00280000
vn -0.02360000 0.99970000 0.00890000
vn -0.01250000 0.99990000 0.00460000
vn -0.01250000 0.99990000 0.00460000
vn -0.02280000 0.99970000 0.00280000
vn -0.01250000 0.99990000 0.00460000
vt 0.29206688 0.45098039
vt 0.29206688 0.45098039
vt 0.29206688 0.45098039
vt 0.00000000 0.00000000
vt 0.00035575 0.00980392
vt 0.00035575 0.00980392
vt 0.66026325 0.82352941
vt 0.66026325 0.82352941
vt 0.66026325 0.82352941
vt 0.66026325 0.82352941
vt 0.60085379 0.72549020
vt 0.60085379 0.72549020
vt 0.44752757 0.61764706
vt 0.44752757 0.61764706
vt 0.44752757 0.61764706
vt 0.43756670 0.63725490
vt 0.43756670 0.63725490
vt 0.43756670 0.63725490
vt 0.43756670 0.63725490
vt 0.80220562 0.91176471
vt 0.80220562 0.91176471
vt 0.80220562 0.91176471
vt 0.83706866 0.95098039
vt 0.83706866 0.95098039
vt 1.00000000 1.00000000
vt 0.29206688 0.45098039
vt 0.29206688 0.45098039
vt 0.29206688 0.45098039
vt 0.00000000 0.00000000
vt 0.43756670 0.63725490
vt 0.43756670 0.63725490
vt 0.43756670 0.63725490
vt 0.44752757 0.61764706
vt 0.44752757 0.61764706
vt 0.44752757 0.61764706
vt 0.66026325 0.82352941
vt 0.66026325 0.82352941
vt 0.66026325 0.82352941
vt 0.66026325 0.82352941
vt 0.60085379 0.72549020
vt 0.60085379 0.72549020
vt 0.80220562 0.91176471
vt 0.80220562 0.91176471
vt 0.80220562 0.91176471
vt 0.83706866 0.95098039
vt 0.83706866 0.95098039
vt 1.00000000 1.00000000
f 1/1/1 4/4/4 6/6/6
f 10/10/10 11/11/11 14/14/14
f 16/16/16 15/15/15 3/3/3
f 18/18/18 8/8/8 13/13/13
f 19/19/19 2/2/2 5/5/5
f 19/19/19 17/17/17 2/2/2
f 20/20/20 12/12/12 7/7/7
f 23/23/23 21/21/21 9/9/9
f 25/25/25 22/22/22 24/24/24
f 27/27/27 19/19/19 5/5/5
f 26/26/26 6/6/6 29/29/29
f 30/30/30 19/19/19 27/27/27
f 35/35/35 31/31/31 28/28/28
f 36/36/36 32/32/32 33/33/33
f 40/40/40 37/37/37 34/34/34
f 42/42/42 46/46/46 38/38/38
f 43/43/43 39/39/39 41/41/41
f 47/47/47 45/45/45 44/44/44

