# https://github.com/mikedh/trimesh
mtllib link6_1_from_obj.mtl
usemtl material_0
v 0.00272700 -0.00802600 0.05338300
v 0.00272700 -0.00802600 0.05338300
v 0.00272700 -0.00802600 0.05338300
v 0.00109500 -0.00473700 0.05323000
v 0.00109500 -0.00473700 0.05323000
v 0.00109500 -0.00473700 0.05323000
v 0.00109500 -0.00473700 0.05323000
v -0.00039200 -0.00697500 0.05308100
v -0.00039200 -0.00697500 0.05308100
v -0.00039200 -0.00697500 0.05308100
v -0.00350900 -0.00592600 0.05274500
v -0.00350900 -0.00592600 0.05274500
v -0.00350900 -0.00592600 0.05274500
v -0.00350900 -0.00592600 0.05274500
v -0.00058600 -0.00134600 0.05306100
v -0.00058600 -0.00134600 0.05306100
v -0.00058600 -0.00134600 0.05306100
v -0.00246700 -0.00226000 0.05286100
v -0.00246700 -0.00226000 0.05286100
v -0.00246700 -0.00226000 0.05286100
v -0.00434700 -0.00317300 0.05264900
v -0.00434700 -0.00317300 0.05264900
v -0.00434700 -0.00317300 0.05264900
v -0.00543100 -0.00527800 0.05252000
v -0.00543100 -0.00527800 0.05252000
v -0.00585000 -0.00390300 0.05247000
v -0.00585000 -0.00390300 0.05247000
v -0.00735300 -0.00463200 0.05228200
v -0.00735300 -0.00463200 0.05228200
v -0.00735300 -0.00463200 0.05228200
v -0.00736700 -0.00463300 0.05198000
v -0.00736700 -0.00463300 0.05198000
v -0.00435400 -0.00317000 0.05234800
v -0.00246900 -0.00225500 0.05256100
v -0.00058400 -0.00133900 0.05276200
v -0.00058400 -0.00133900 0.05276200
v 0.00110200 -0.00473800 0.05293100
v 0.00273800 -0.00803500 0.05308400
v 0.00273800 -0.00803500 0.05308400
v -0.00038100 -0.00698400 0.05278300
v -0.00349600 -0.00593500 0.05244600
v -0.00543200 -0.00528400 0.05222000
v 0.00383600 -0.01286100 0.05348100
v 0.00383600 -0.01286100 0.05348100
v 0.00383600 -0.01286100 0.05348100
v 0.00139500 -0.00800200 0.05325900
v 0.00139500 -0.00800200 0.05325900
v 0.00139500 -0.00800200 0.05325900
v 0.00139500 -0.00800200 0.05325900
v 0.00203500 -0.01226300 0.05332000
v 0.00203500 -0.01226300 0.05332000
v 0.00203500 -0.01226300 0.05332000
v 0.00016900 -0.01164500 0.05313800
v 0.00016900 -0.01164500 0.05313800
v 0.00016900 -0.01164500 0.05313800
v 0.00384600 -0.01286900 0.05318200
v 0.00384600 -0.01286900 0.05318200
v 0.00203700 -0.01226900 0.05302000
v 0.00016200 -0.01164800 0.05283800
v 0.00016200 -0.01164800 0.05283800
v 0.00139400 -0.00798800 0.05295900
v 0.00139400 -0.00798800 0.05295900
v -0.00593500 -0.00326500 0.05245900
v -0.00593500 -0.00326500 0.05245900
v -0.00593500 -0.00326500 0.05245900
v -0.00794200 -0.00261300 0.05220600
v -0.00794200 -0.00261300 0.05220600
v -0.00820000 -0.00437500 0.05217200
v -0.00820000 -0.00437500 0.05217200
v -0.00820000 -0.00437500 0.05217200
v -0.00977500 -0.00201700 0.05195600
v -0.00977500 -0.00201700 0.05195600
v -0.00977500 -0.00201700 0.05195600
v -0.00977500 -0.00201700 0.05195600
v -0.00961400 -0.00506900 0.05197900
v -0.00961400 -0.00506900 0.05197900
v -0.01102700 -0.00576200 0.05177300
v -0.01102700 -0.00576200 0.05177300
v -0.01102700 -0.00576200 0.05177300
v -0.00793700 -0.00260900 0.05190600
v -0.00977900 -0.00201000 0.05165500
v -0.00977900 -0.00201000 0.05165500
v -0.00592100 -0.00326400 0.05216100
v -0.00592100 -0.00326400 0.05216100
v -0.01103600 -0.00577200 0.05147100
v -0.01103600 -0.00577200 0.05147100
v -0.00819700 -0.00437900 0.05187200
v -0.00961700 -0.00507600 0.05167800
v 0.00715800 0.00341900 0.05374000
v 0.00715800 0.00341900 0.05374000
v 0.00715800 0.00341900 0.05374000
v 0.00519800 0.00408000 0.05359400
v 0.00519800 0.00408000 0.05359400
v 0.00436400 0.00203400 0.05352600
v 0.00436400 0.00203400 0.05352600
v 0.00436400 0.00203400 0.05352600
v 0.00324000 0.00474100 0.05342900
v 0.00324000 0.00474100 0.05342900
v 0.00324000 0.00474100 0.05342900
v 0.00157200 0.00065100 0.05327600
v 0.00157200 0.00065100 0.05327600
v 0.00157200 0.00065100 0.05327600
v 0.00010900 0.00579900 0.05313200
v 0.00010900 0.00579900 0.05313200
v 0.00010900 0.00579900 0.05313200
v 0.00010900 0.00579900 0.05313200
v 0.00010900 0.00579900 0.05313200
v -0.00038200 -0.00031800 0.05308300
v -0.00038200 -0.00031800 0.05308300
v -0.00038200 -0.00031800 0.05308300
v -0.00233600 -0.00128700 0.05287500
v -0.00233600 -0.00128700 0.05287500
v -0.00233600 -0.00128700 0.05287500
v 0.00324400 0.00474500 0.05312900
v 0.00010500 0.00580600 0.05283200
v 0.00010500 0.00580600 0.05283200
v 0.00520700 0.00408300 0.05329400
v 0.00717200 0.00342000 0.05344100
v 0.00717200 0.00342000 0.05344100
v -0.00234500 -0.00129700 0.05257400
v -0.00234500 -0.00129700 0.05257400
v 0.00437800 0.00203500 0.05322700
v 0.00158600 0.00065200 0.05297800
v -0.00038000 -0.00032300 0.05278300
v 0.01144400 0.00363900 0.05400000
v 0.01144400 0.00363900 0.05400000
v 0.01144400 0.00363900 0.05400000
v 0.00935800 0.00434200 0.05388300
v 0.00935800 0.00434200 0.05388300
v 0.00874400 0.00223900 0.05384500
v 0.00874400 0.00223900 0.05384500
v 0.00874400 0.00223900 0.05384500
v 0.00737100 0.00501200 0.05375500
v 0.00737100 0.00501200 0.05375500
v 0.00737100 0.00501200 0.05375500
v 0.00935900 0.00434700 0.05358300
v 0.00736100 0.00502100 0.05345400
v 0.00736100 0.00502100 0.05345400
v 0.01145800 0.00364000 0.05370100
v 0.01145800 0.00364000 0.05370100
v 0.00874100 0.00223200 0.05354500
v 0.00874100 0.00223200 0.05354500
v 0.00587600 0.00779500 0.05364700
v 0.00587600 0.00779500 0.05364700
v 0.00587600 0.00779500 0.05364700
v 0.00390000 0.01168000 0.05348700
v 0.00390000 0.01168000 0.05348700
v 0.00390000 0.01168000 0.05348700
v 0.00390000 0.01168000 0.05348700
v 0.00396800 0.00682000 0.05349200
v 0.00396800 0.00682000 0.05349200
v 0.00396800 0.00682000 0.05349200
v 0.00199000 0.01070900 0.05331500
v 0.00199000 0.01070900 0.05331500
v 0.00199000 0.01070900 0.05331500
v 0.00199300 0.00581000 0.05331600
v 0.00199300 0.00581000 0.05331600
v 0.00199300 0.00581000 0.05331600
v 0.00199300 0.00581000 0.05331600
v 0.00000600 0.00970300 0.05312200
v 0.00000600 0.00970300 0.05312200
v 0.00000600 0.00970300 0.05312200
v 0.00198700 0.01071400 0.05301500
v -0.00000100 0.00970500 0.05282100
v -0.00000100 0.00970500 0.05282100
v 0.00390200 0.01168700 0.05318700
v 0.00390200 0.01168700 0.05318700
v 0.00588300 0.00779300 0.05334700
v 0.00588300 0.00779300 0.05334700
v 0.00397000 0.00681500 0.05319300
v 0.00199100 0.00580300 0.05301600
v 0.00199100 0.00580300 0.05301600
v 0.00125000 0.01098300 0.05324500
v 0.00125000 0.01098300 0.05324500
v 0.00125000 0.01098300 0.05324500
v -0.00133200 0.01192200 0.05298300
v -0.00133200 0.01192200 0.05298300
v -0.00133200 0.01192200 0.05298300
v -0.00133200 0.01192200 0.05298300
v -0.00072500 0.00999900 0.05304700
v -0.00072500 0.00999900 0.05304700
v -0.00072500 0.00999900 0.05304700
v -0.00336400 0.01091000 0.05276100
v -0.00336400 0.01091000 0.05276100
v -0.00336400 0.01091000 0.05276100
v -0.00274100 0.00899400 0.05283100
v -0.00274100 0.00899400 0.05283100
v -0.00274100 0.00899400 0.05283100
v -0.00274100 0.00899400 0.05283100
v -0.00538900 0.00990200 0.05252500
v -0.00538900 0.00990200 0.05252500
v -0.00538900 0.00990200 0.05252500
v -0.00337100 0.01091200 0.05246000
v -0.00540200 0.00990100 0.05222400
v -0.00540200 0.00990100 0.05222400
v -0.00133300 0.01192700 0.05268300
v -0.00133300 0.01192700 0.05268300
v 0.00126400 0.01098400 0.05294600
v 0.00126400 0.01098400 0.05294600
v -0.00071800 0.00999600 0.05274800
v -0.00274100 0.00898800 0.05253100
v -0.00274100 0.00898800 0.05253100
vn -0.09690000 -0.00170000 0.99530000
vn -0.32080000 -0.94700000 0.01740000
vn 0.89540000 0.44500000 0.01770000
vn -0.09690000 -0.00170000 0.99530000
vn -0.10600000 0.00440000 0.99440000
vn -0.10460000 -0.00240000 0.99450000
vn 0.89540000 0.44500000 0.01760000
vn -0.09690000 -0.00170000 0.99530000
vn -0.10600000 0.00440000 0.99440000
vn -0.32080000 -0.94700000 0.01740000
vn -0.32080000 -0.94700000 0.01770000
vn -0.11230000 0.00030000 0.99370000
vn -0.10430000 -0.00200000 0.99450000
vn -0.11620000 -0.00080000 0.99320000
vn 0.89540000 0.44490000 0.01760000
vn -0.10460000 -0.00240000 0.99450000
vn -0.43840000 0.89860000 0.01730000
vn -0.11230000 0.00030000 0.99370000
vn -0.43840000 0.89860000 0.01760000
vn -0.10460000 -0.00240000 0.99450000
vn -0.11620000 -0.00080000 0.99320000
vn -0.43840000 0.89860000 0.01730000
vn -0.11230000 0.00030000 0.99370000
vn -0.11620000 -0.00080000 0.99320000
vn -0.32080000 -0.94700000 0.01770000
vn -0.43840000 0.89860000 0.01740000
vn -0.11850000 0.00040000 0.99290000
vn -0.32080000 -0.94700000 0.01760000
vn -0.12350000 -0.00110000 0.99230000
vn -0.43830000 0.89870000 0.01720000
vn -0.43840000 0.89860000 0.01740000
vn -0.32080000 -0.94700000 0.01760000
vn -0.43840000 0.89860000 0.01730000
vn -0.43830000 0.89870000 0.01760000
vn -0.43840000 0.89860000 0.01730000
vn 0.89540000 0.44490000 0.01740000
vn 0.89540000 0.44490000 0.01740000
vn 0.89540000 0.44500000 0.01760000
vn -0.32080000 -0.94700000 0.01760000
vn -0.32080000 -0.94700000 0.01760000
vn -0.32080000 -0.94700000 0.01770000
vn -0.32080000 -0.94700000 0.01760000
vn 0.89320000 0.44940000 0.01790000
vn -0.31630000 -0.94850000 0.01630000
vn -0.08910000 0.00080000 0.99600000
vn -0.09680000 -0.00040000 0.99530000
vn 0.89320000 0.44940000 0.01750000
vn -0.94780000 0.31850000 0.01740000
vn -0.08910000 0.00080000 0.99600000
vn -0.08910000 0.00080000 0.99600000
vn -0.09680000 -0.00040000 0.99530000
vn -0.31630000 -0.94850000 0.01630000
vn -0.94770000 0.31850000 0.01770000
vn -0.31600000 -0.94860000 0.01660000
vn -0.09680000 -0.00040000 0.99530000
vn -0.31620000 -0.94850000 0.01740000
vn 0.89320000 0.44940000 0.01790000
vn -0.31600000 -0.94860000 0.01660000
vn -0.94770000 0.31850000 0.01770000
vn -0.31600000 -0.94860000 0.01660000
vn 0.89320000 0.44940000 0.01750000
vn -0.94780000 0.31850000 0.01740000
vn -0.12550000 -0.00070000 0.99210000
vn 0.43840000 -0.89860000 0.01770000
vn 0.30700000 0.95160000 0.01710000
vn 0.30690000 0.95160000 0.01710000
vn -0.13480000 0.00070000 0.99090000
vn 0.43840000 -0.89860000 0.01720000
vn -0.13540000 0.00030000 0.99080000
vn -0.13480000 0.00070000 0.99090000
vn -0.14420000 -0.00020000 0.98950000
vn -0.13480000 0.00070000 0.99090000
vn 0.30690000 0.95160000 0.01710000
vn -0.94860000 0.31610000 0.01750000
vn 0.43840000 -0.89860000 0.01720000
vn -0.13540000 0.00030000 0.99080000
vn -0.94860000 0.31610000 0.01750000
vn 0.43840000 -0.89860000 0.01710000
vn -0.14420000 -0.00020000 0.98950000
vn 0.30700000 0.95160000 0.01710000
vn 0.30700000 0.95160000 0.01750000
vn -0.94860000 0.31610000 0.01750000
vn 0.43840000 -0.89860000 0.01720000
vn 0.30700000 0.95160000 0.01710000
vn -0.94860000 0.31610000 0.01770000
vn 0.43840000 -0.89860000 0.01710000
vn 0.43840000 -0.89860000 0.01720000
vn 0.43840000 -0.89860000 0.01710000
vn 0.31850000 0.94780000 0.01740000
vn 0.44280000 -0.89650000 0.01750000
vn -0.07530000 -0.00230000 0.99720000
vn -0.08340000 0.00100000 0.99650000
vn 0.31850000 0.94780000 0.01730000
vn 0.44270000 -0.89650000 0.01730000
vn -0.07530000 -0.00230000 0.99720000
vn -0.08850000 -0.00120000 0.99610000
vn -0.08850000 -0.00120000 0.99610000
vn 0.31850000 0.94780000 0.01750000
vn -0.08340000 0.00100000 0.99650000
vn -0.09400000 0.00110000 0.99560000
vn 0.44280000 -0.89650000 0.01730000
vn -0.09850000 -0.00020000 0.99510000
vn -0.94540000 0.32550000 0.01740000
vn 0.31850000 0.94780000 0.01750000
vn -0.09850000 -0.00020000 0.99510000
vn -0.09400000 0.00110000 0.99560000
vn -0.10570000 0.00040000 0.99440000
vn 0.44280000 -0.89650000 0.01720000
vn -0.10570000 0.00040000 0.99440000
vn -0.09850000 -0.00020000 0.99510000
vn 0.44280000 -0.89650000 0.01730000
vn -0.10570000 0.00040000 0.99440000
vn -0.94540000 0.32550000 0.01750000
vn 0.31850000 0.94780000 0.01750000
vn -0.94540000 0.32550000 0.01750000
vn 0.31850000 0.94780000 0.01740000
vn 0.31850000 0.94780000 0.01750000
vn 0.44280000 -0.89650000 0.01750000
vn 0.31850000 0.94780000 0.01730000
vn -0.94540000 0.32550000 0.01750000
vn 0.44280000 -0.89650000 0.01730000
vn 0.44270000 -0.89650000 0.01720000
vn 0.44270000 -0.89650000 0.01720000
vn 0.44280000 -0.89650000 0.01750000
vn -0.05660000 -0.00140000 0.99840000
vn 0.45940000 -0.88810000 0.01790000
vn 0.31830000 0.94780000 0.01770000
vn -0.06400000 0.00070000 0.99790000
vn 0.31830000 0.94780000 0.01760000
vn 0.45940000 -0.88810000 0.01790000
vn -0.89630000 -0.44310000 0.01740000
vn -0.06400000 0.00070000 0.99790000
vn -0.89630000 -0.44310000 0.01730000
vn 0.31830000 0.94780000 0.01750000
vn -0.06400000 0.00070000 0.99790000
vn 0.31830000 0.94780000 0.01750000
vn 0.31830000 0.94780000 0.01750000
vn -0.89630000 -0.44310000 0.01730000
vn 0.45940000 -0.88810000 0.01790000
vn 0.31830000 0.94780000 0.01760000
vn -0.89630000 -0.44310000 0.01730000
vn 0.45930000 -0.88810000 0.01740000
vn 0.89090000 0.45390000 0.01760000
vn 0.45390000 -0.89090000 0.01770000
vn -0.08050000 0.00010000 0.99680000
vn 0.89090000 0.45390000 0.01760000
vn -0.08930000 -0.00010000 0.99600000
vn -0.45390000 0.89090000 0.01750000
vn -0.08050000 0.00010000 0.99680000
vn 0.45390000 -0.89090000 0.01740000
vn -0.08050000 0.00010000 0.99680000
vn -0.08920000 -0.00000000 0.99600000
vn -0.08920000 -0.00000000 0.99600000
vn -0.45390000 0.89090000 0.01750000
vn -0.09710000 -0.00000000 0.99530000
vn -0.08920000 -0.00000000 0.99600000
vn -0.89090000 -0.45390000 0.01770000
vn 0.45390000 -0.89090000 0.01730000
vn -0.09710000 -0.00000000 0.99530000
vn -0.89090000 -0.45390000 0.01770000
vn -0.45390000 0.89090000 0.01740000
vn -0.09710000 -0.00000000 0.99530000
vn -0.45390000 0.89090000 0.01740000
vn -0.89090000 -0.45390000 0.01750000
vn -0.45390000 0.89090000 0.01740000
vn -0.45390000 0.89090000 0.01750000
vn 0.89090000 0.45390000 0.01740000
vn 0.89090000 0.45390000 0.01740000
vn 0.45390000 -0.89090000 0.01770000
vn 0.45390000 -0.89090000 0.01740000
vn -0.89090000 -0.45390000 0.01750000
vn 0.45390000 -0.89090000 0.01730000
vn 0.33990000 0.94030000 0.01790000
vn -0.10040000 0.00130000 0.99490000
vn 0.44450000 -0.89560000 0.01710000
vn -0.10040000 0.00130000 0.99490000
vn -0.44700000 0.89440000 0.01620000
vn -0.10820000 -0.00120000 0.99410000
vn 0.33990000 0.94030000 0.01790000
vn -0.10040000 0.00130000 0.99490000
vn -0.10730000 0.00120000 0.99420000
vn 0.44450000 -0.89560000 0.01710000
vn -0.44700000 0.89440000 0.01620000
vn -0.11500000 -0.00130000 0.99340000
vn -0.10820000 -0.00120000 0.99410000
vn 0.44450000 -0.89560000 0.01740000
vn -0.32630000 -0.94510000 0.01730000
vn -0.10730000 0.00120000 0.99420000
vn -0.11500000 -0.00130000 0.99340000
vn -0.11500000 -0.00130000 0.99340000
vn -0.32630000 -0.94510000 0.01750000
vn -0.44710000 0.89430000 0.01750000
vn -0.44710000 0.89430000 0.01750000
vn -0.44710000 0.89430000 0.01750000
vn -0.32630000 -0.94510000 0.01750000
vn -0.44700000 0.89440000 0.01710000
vn 0.33990000 0.94030000 0.01630000
vn 0.44450000 -0.89560000 0.01740000
vn 0.33990000 0.94030000 0.01630000
vn 0.44450000 -0.89560000 0.01740000
vn 0.44450000 -0.89560000 0.01760000
vn -0.32630000 -0.94510000 0.01730000
vt 0.61185205 0.19531376
vt 0.61185205 0.19531376
vt 0.61185205 0.19531376
vt 0.53929937 0.32795612
vt 0.53929937 0.32795612
vt 0.53929937 0.32795612
vt 0.53929937 0.32795612
vt 0.47319285 0.23769963
vt 0.47319285 0.23769963
vt 0.47319285 0.23769963
vt 0.33462257 0.28000484
vt 0.33462257 0.28000484
vt 0.33462257 0.28000484
vt 0.33462257 0.28000484
vt 0.46456833 0.46471205
vt 0.46456833 0.46471205
vt 0.46456833 0.46471205
vt 0.38094603 0.42785127
vt 0.38094603 0.42785127
vt 0.38094603 0.42785127
vt 0.29736819 0.39103081
vt 0.29736819 0.39103081
vt 0.29736819 0.39103081
vt 0.24917756 0.30613809
vt 0.24917756 0.30613809
vt 0.23055037 0.36159058
vt 0.23055037 0.36159058
vt 0.16373255 0.33219068
vt 0.16373255 0.33219068
vt 0.16373255 0.33219068
vt 0.16311016 0.33215035
vt 0.16311016 0.33215035
vt 0.29705699 0.39115180
vt 0.38085712 0.42805291
vt 0.46465724 0.46499435
vt 0.46465724 0.46499435
vt 0.53961056 0.32791579
vt 0.61234107 0.19495080
vt 0.61234107 0.19495080
vt 0.47368187 0.23733667
vt 0.33520050 0.27964188
vt 0.24913310 0.30589611
vt 0.66115409 0.00032263
vt 0.66115409 0.00032263
vt 0.66115409 0.00032263
vt 0.55263626 0.19628166
vt 0.55263626 0.19628166
vt 0.55263626 0.19628166
vt 0.55263626 0.19628166
vt 0.58108829 0.02443943
vt 0.58108829 0.02443943
vt 0.58108829 0.02443943
vt 0.49813284 0.04936280
vt 0.49813284 0.04936280
vt 0.49813284 0.04936280
vt 0.66159865 0.00000000
vt 0.66159865 0.00000000
vt 0.58117720 0.02419745
vt 0.49782164 0.04924181
vt 0.49782164 0.04924181
vt 0.55259180 0.19684627
vt 0.55259180 0.19684627
vt 0.22677158 0.38732054
vt 0.22677158 0.38732054
vt 0.22677158 0.38732054
vt 0.13754779 0.41361510
vt 0.13754779 0.41361510
vt 0.12607807 0.34255525
vt 0.12607807 0.34255525
vt 0.12607807 0.34255525
vt 0.05605939 0.43765123
vt 0.05605939 0.43765123
vt 0.05605939 0.43765123
vt 0.05605939 0.43765123
vt 0.06321686 0.31456687
vt 0.06321686 0.31456687
vt 0.00040011 0.28661881
vt 0.00040011 0.28661881
vt 0.00040011 0.28661881
vt 0.13777007 0.41377642
vt 0.05588157 0.43793354
vt 0.05588157 0.43793354
vt 0.22739397 0.38736086
vt 0.22739397 0.38736086
vt 0.00000000 0.28621552
vt 0.00000000 0.28621552
vt 0.12621143 0.34239393
vt 0.06308349 0.31428456
vt 0.80883791 0.65688014
vt 0.80883791 0.65688014
vt 0.80883791 0.65688014
vt 0.72170357 0.68353767
vt 0.72170357 0.68353767
vt 0.68462701 0.60102436
vt 0.68462701 0.60102436
vt 0.68462701 0.60102436
vt 0.63465813 0.71019519
vt 0.63465813 0.71019519
vt 0.63465813 0.71019519
vt 0.56050502 0.54524923
vt 0.56050502 0.54524923
vt 0.56050502 0.54524923
vt 0.49546546 0.75286337
vt 0.49546546 0.75286337
vt 0.49546546 0.75286337
vt 0.49546546 0.75286337
vt 0.49546546 0.75286337
vt 0.47363741 0.50617035
vt 0.47363741 0.50617035
vt 0.47363741 0.50617035
vt 0.38676981 0.46709147
vt 0.38676981 0.46709147
vt 0.38676981 0.46709147
vt 0.63483596 0.71035651
vt 0.49528763 0.75314567
vt 0.49528763 0.75314567
vt 0.72210367 0.68365865
vt 0.80946030 0.65692047
vt 0.80946030 0.65692047
vt 0.38636970 0.46668818
vt 0.38636970 0.46668818
vt 0.68524940 0.60106469
vt 0.56112741 0.54528956
vt 0.47372633 0.50596870
vt 0.99937761 0.66575254
vt 0.99937761 0.66575254
vt 0.99937761 0.66575254
vt 0.90664177 0.69410389
vt 0.90664177 0.69410389
vt 0.87934560 0.60929182
vt 0.87934560 0.60929182
vt 0.87934560 0.60929182
vt 0.81830710 0.72112437
vt 0.81830710 0.72112437
vt 0.81830710 0.72112437
vt 0.90668623 0.69430553
vt 0.81786254 0.72148734
vt 0.81786254 0.72148734
vt 1.00000000 0.66579287
vt 1.00000000 0.66579287
vt 0.87921223 0.60900952
vt 0.87921223 0.60900952
vt 0.75184494 0.83336022
vt 0.75184494 0.83336022
vt 0.75184494 0.83336022
vt 0.66399929 0.99003872
vt 0.66399929 0.99003872
vt 0.66399929 0.99003872
vt 0.66399929 0.99003872
vt 0.66702232 0.79403936
vt 0.66702232 0.79403936
vt 0.66702232 0.79403936
vt 0.57908776 0.95087917
vt 0.57908776 0.95087917
vt 0.57908776 0.95087917
vt 0.57922113 0.75330698
vt 0.57922113 0.75330698
vt 0.57922113 0.75330698
vt 0.57922113 0.75330698
vt 0.49088646 0.91030811
vt 0.49088646 0.91030811
vt 0.49088646 0.91030811
vt 0.57895439 0.95108082
vt 0.49057526 0.91038877
vt 0.49057526 0.91038877
vt 0.66408820 0.99032102
vt 0.66408820 0.99032102
vt 0.75215613 0.83327956
vt 0.75215613 0.83327956
vt 0.66711123 0.79383772
vt 0.57913221 0.75302468
vt 0.57913221 0.75302468
vt 0.54619010 0.96192934
vt 0.54619010 0.96192934
vt 0.54619010 0.96192934
vt 0.43140393 0.99979835
vt 0.43140393 0.99979835
vt 0.43140393 0.99979835
vt 0.43140393 0.99979835
vt 0.45838890 0.92224552
vt 0.45838890 0.92224552
vt 0.45838890 0.92224552
vt 0.34106873 0.95898532
vt 0.34106873 0.95898532
vt 0.34106873 0.95898532
vt 0.36876500 0.88171479
vt 0.36876500 0.88171479
vt 0.36876500 0.88171479
vt 0.36876500 0.88171479
vt 0.25104472 0.91833360
vt 0.25104472 0.91833360
vt 0.25104472 0.91833360
vt 0.34075754 0.95906598
vt 0.25046679 0.91829327
vt 0.25046679 0.91829327
vt 0.43135947 1.00000000
vt 0.43135947 1.00000000
vt 0.54681248 0.96196967
vt 0.54681248 0.96196967
vt 0.45870010 0.92212454
vt 0.36876500 0.88147282
vt 0.36876500 0.88147282
f 1/1/1 4/4/4 8/8/8
f 5/5/5 12/12/12 9/9/9
f 16/16/16 20/20/20 6/6/6
f 6/6/6 20/20/20 13/13/13
f 14/14/14 21/21/21 24/24/24
f 18/18/18 23/23/23 12/12/12
f 21/21/21 27/27/27 24/24/24
f 27/27/27 29/29/29 24/24/24
f 26/26/26 31/31/31 30/30/30
f 33/33/33 26/26/26 22/22/22
f 34/34/34 22/22/22 19/19/19
f 34/34/34 33/33/33 22/22/22
f 35/35/35 19/19/19 17/17/17
f 35/35/35 34/34/34 19/19/19
f 33/33/33 31/31/31 26/26/26
f 37/37/37 15/15/15 7/7/7
f 37/37/37 36/36/36 15/15/15
f 38/38/38 7/7/7 3/3/3
f 38/38/38 37/37/37 7/7/7
f 10/10/10 39/39/39 2/2/2
f 40/40/40 39/39/39 10/10/10
f 11/11/11 40/40/40 10/10/10
f 41/41/41 40/40/40 11/11/11
f 25/25/25 41/41/41 11/11/11
f 42/42/42 41/41/41 25/25/25
f 28/28/28 42/42/42 25/25/25
f 32/32/32 42/42/42 28/28/28
f 45/45/45 49/49/49 50/50/50
f 51/51/51 46/46/46 55/55/55
f 52/52/52 56/56/56 44/44/44
f 58/58/58 56/56/56 52/52/52
f 54/54/54 58/58/58 52/52/52
f 60/60/60 58/58/58 54/54/54
f 57/57/57 47/47/47 43/43/43
f 57/57/57 61/61/61 47/47/47
f 62/62/62 53/53/53 48/48/48
f 62/62/62 59/59/59 53/53/53
f 63/63/63 67/67/67 70/70/70
f 69/69/69 71/71/71 76/76/76
f 76/76/76 71/71/71 79/79/79
f 67/67/67 72/72/72 70/70/70
f 80/80/80 73/73/73 66/66/66
f 80/80/80 81/81/81 73/73/73
f 84/84/84 66/66/66 65/65/65
f 84/84/84 80/80/80 66/66/66
f 82/82/82 77/77/77 74/74/74
f 82/82/82 85/85/85 77/77/77
f 68/68/68 83/83/83 64/64/64
f 87/87/87 83/83/83 68/68/68
f 75/75/75 87/87/87 68/68/68
f 88/88/88 87/87/87 75/75/75
f 78/78/78 88/88/88 75/75/75
f 86/86/86 88/88/88 78/78/78
f 91/91/91 92/92/92 95/95/95
f 96/96/96 97/97/97 100/100/100
f 92/92/92 99/99/99 95/95/95
f 102/102/102 105/105/105 110/110/110
f 109/109/109 107/107/107 112/112/112
f 97/97/97 106/106/106 100/100/100
f 114/114/114 104/104/104 98/98/98
f 114/114/114 116/116/116 104/104/104
f 117/117/117 98/98/98 93/93/93
f 117/117/117 114/114/114 98/98/98
f 119/119/119 93/93/93 89/89/89
f 119/119/119 117/117/117 93/93/93
f 115/115/115 113/113/113 103/103/103
f 115/115/115 120/120/120 113/113/113
f 94/94/94 118/118/118 90/90/90
f 122/122/122 118/118/118 94/94/94
f 101/101/101 122/122/122 94/94/94
f 123/123/123 122/122/122 101/101/101
f 108/108/108 123/123/123 101/101/101
f 124/124/124 123/123/123 108/108/108
f 111/111/111 124/124/124 108/108/108
f 121/121/121 124/124/124 111/111/111
f 125/125/125 128/128/128 132/132/132
f 128/128/128 135/135/135 132/132/132
f 136/136/136 134/134/134 129/129/129
f 136/136/136 137/137/137 134/134/134
f 140/140/140 129/129/129 127/127/127
f 140/140/140 136/136/136 129/129/129
f 130/130/130 139/139/139 126/126/126
f 142/142/142 139/139/139 130/130/130
f 133/133/133 141/141/141 131/131/131
f 138/138/138 141/141/141 133/133/133
f 145/145/145 149/149/149 151/151/151
f 152/152/152 153/153/153 156/156/156
f 147/147/147 153/153/153 152/152/152
f 155/155/155 162/162/162 159/159/159
f 163/163/163 161/161/161 154/154/154
f 163/163/163 165/165/165 161/161/161
f 166/166/166 154/154/154 148/148/148
f 166/166/166 163/163/163 154/154/154
f 168/168/168 146/146/146 143/143/143
f 168/168/168 167/167/167 146/146/146
f 150/150/150 169/169/169 144/144/144
f 170/170/170 169/169/169 150/150/150
f 158/158/158 170/170/170 150/150/150
f 172/172/172 170/170/170 158/158/158
f 160/160/160 171/171/171 157/157/157
f 164/164/164 171/171/171 160/160/160
f 174/174/174 176/176/176 180/180/180
f 181/181/181 185/185/185 188/188/188
f 178/178/178 185/185/185 181/181/181
f 184/184/184 190/190/190 189/189/189
f 193/193/193 192/192/192 183/183/183
f 193/193/193 194/194/194 192/192/192
f 196/196/196 183/183/183 177/177/177
f 196/196/196 193/193/193 183/183/183
f 199/199/199 179/179/179 173/173/173
f 199/199/199 197/197/197 179/179/179
f 182/182/182 198/198/198 175/175/175
f 200/200/200 198/198/198 182/182/182
f 186/186/186 200/200/200 182/182/182
f 201/201/201 200/200/200 186/186/186
f 191/191/191 202/202/202 187/187/187
f 195/195/195 202/202/202 191/191/191

