# File produced by Open Asset Import Library (http://www.assimp.sf.net)
# (assimp v5.2.0)

mtllib link6.mtl

# 102 vertex positions
v  -0.0446233228 -0.0164247267 0.0283776876
v  -0.048005145 -0.00316402176 -0.0147473495
v  -0.0439194441 -0.0197587404 -0.0147450306
v  0.0824459493 -0.0513884723 -0.0439850576
v  -0.0109166447 -0.0471065231 -0.0142814061
v  -0.0249876641 -0.0412415117 -0.0147438645
v  -0.0467087626 0.00789979193 0.0280033574
v  -0.0469338037 0.0107318405 -0.0148342792
v  0.0833345577 0.0203919448 -0.0434033573
v  -0.0145132272 -0.042906411 0.031952519
v  0.0528277159 -0.0511888154 0.031754069
v  0.0840245038 -0.0512164757 0.044033505
v  -0.0469512902 -0.00140831247 0.0296640676
v  -0.0351189189 -0.033151187 -0.0148123531
v  0.0404460542 0.0188327469 0.0555287115
v  0.0995977819 0.048589427 0.0392923839
v  0.0900834724 0.0715223178 0.0361340903
v  0.0962095112 -0.0512225367 0.0433151647
v  0.0434458852 -0.0178188216 0.0551194362
v  0.0155624505 -0.0240335241 0.0563086309
v  0.113921396 0.0193672273 0.0353819914
v  0.103877336 0.0126593495 0.0410453826
v  0.112192638 -0.0511987172 0.037192259
v  -0.0201252121 -0.0431080014 0.0212108679
v  -0.0299933292 -0.035958305 0.0290480927
v  -0.0430108756 0.0201951619 0.0278554447
v  -0.0403669141 0.0263307411 -0.0147524429
v  0.0966777205 0.0142937256 -0.0432435349
v  0.0971297473 -0.0512000881 -0.0431433879
v  -0.00916807726 -0.0465866067 0.021676654
v  -0.0376185328 -0.0283228662 0.0284839571
v  0.123994417 -0.051197473 0.0254579857
v  0.121453114 0.0184476729 0.0286619104
v  0.108684413 0.0740842298 -0.0114124939
v  0.0782508403 0.0795089081 0.0242871419
v  0.10001298 0.0752509758 0.0241234414
v  0.118023373 0.0684048533 0.00884578377
v  0.126265422 0.0584191456 -0.00024473021
v  0.120244652 0.0662970021 -0.00687881466
v  0.0598846786 0.0802144706 -0.0155435139
v  0.0577595904 0.0812782198 0.000354114105
v  0.0671583712 0.0816808939 -0.00744076585
v  0.0773138031 0.0796082243 -0.0235087406
v  0.129336283 -0.0511966161 0.015630234
v  -0.0314548016 0.0290343408 0.0357929058
v  -0.0151261641 0.0200821254 0.0526533201
v  -0.0180703495 0.0347106569 0.0405491255
v  0.127329394 0.0179646499 0.0193110723
v  -0.00512768002 0.0240629259 0.0544181168
v  -0.00739978999 -0.0237244386 0.0541477948
v  0.0535973869 -0.0511868149 -0.0310587101
v  0.0860619992 0.0494970866 -0.0409073979
v  0.0823713243 0.0726717189 -0.0362087823
v  -0.0289263576 0.0389446542 -0.0146610057
v  0.109158233 -0.0511985794 -0.0388471074
v  0.117111027 0.0206448343 -0.0328900255
v  0.122346915 -0.0511998646 -0.0278661661
v  0.111397602 0.0722966045 0.0156054972
v  0.0656546578 0.0813335553 0.0133347437
v  0.113856301 0.0704337731 -0.0160208326
v  0.10997954 0.0680924356 -0.0272041243
v  0.100099742 0.0752279758 -0.0239014998
v  0.095383577 0.0703371391 -0.0356720723
v  0.0150510864 0.0240851976 0.0562059805
v  0.10243731 0.0680883825 0.0337976217
v  0.0743179098 0.0747677982 0.0339185931
v  0.129873574 -0.0511994287 -0.014321913
v  0.132207766 -0.0511994585 0.0013500416
v  0.0623385906 0.0778144524 0.0240777917
v  -0.0397333689 -0.010685917 0.0374061726
v  -0.0358685553 0.00566875516 0.0421168841
v  -0.0403675847 0.0149302846 0.0354567207
v  -0.0276158918 0.02141116 0.0438346006
v  -0.0223969743 -0.0118838362 0.05105922
v  -0.0317825936 -0.0253736041 0.0387499891
v  -0.0251727551 0.0402767621 0.0220458116
v  0.125860706 0.0201752875 -0.0222355574
v  0.103421889 0.0421097875 -0.038908843
v  0.124763541 0.0434026755 0.0195186939
v  0.121380299 0.0630986914 0.0152053991
v  0.118857153 0.052365534 0.0265778825
v  0.0868306309 0.0767536536 -0.0290508475
v  0.055641707 0.0794530287 0.0122350669
v  -0.023225259 0.0394268073 0.0312640816
v  0.0885253325 0.0767582953 0.0279808249
v  0.131421193 0.0218528472 0.00624909159
v  -0.0171315186 -0.0354567021 0.0406831279
v  -0.0349794328 0.0314245969 0.02850971
v  0.120109722 0.0426246077 -0.0273547228
v  0.103584766 0.0655599385 -0.0338777564
v  -0.0236991588 0.0075739813 0.0506507382
v  0.131347984 0.00939642359 -0.00799756497
v  0.129079372 0.0452956371 -0.00663166959
v  0.124368116 0.048726853 -0.0181949101
v  0.110566542 0.0677589029 0.0269505139
v  0.12821503 0.0499707162 0.00570603786
v  0.121276632 0.0632764846 -0.0151323471
v  0.070076786 0.0761455297 -0.0309477299
v  0.109490715 0.0106771551 -0.0384216756
v  0.109807827 0.0460439436 0.035077069
v  0.112939484 0.0455499068 -0.033175461
v  0.117625475 0.0590653159 -0.0248977486

# 0 UV coordinates

# 200 vertex normals
vn -0.971000075 -0.239064619 0.0026338445
vn -0.254001856 -0.664782405 -0.702529311
vn -0.996982992 0.0769307464 0.0103234258
vn -0.239034444 -0.0589868873 -0.969217718
vn -0.215004072 0.0104672192 -0.976557076
vn -0.214954406 0.0105750235 -0.976566911
vn -0.115892522 -0.949279726 0.292295903
vn -0.987376332 -0.155605242 0.0295813344
vn -0.276602209 -0.353943467 -0.893428862
vn -0.261809021 -0.167263314 -0.950515151
vn 0.163960949 0.201027945 0.965766311
vn 0.0875161141 -0.206166461 0.974595428
vn 0.485790044 0.010520258 0.874012291
vn -0.384844393 -0.922972202 0.0041320934
vn -0.623935103 -0.781140029 0.0229199603
vn -0.92165494 0.388008475 -0.00131807989
vn -0.99929446 0.0300547965 0.0225244313
vn 0.0572402403 -0.00113154366 -0.99835974
vn -0.0769530311 -0.996869385 0.0181556791
vn -0.835611403 -0.549167037 0.0129999174
vn 0.705059409 -0.00689468626 0.70911473
vn 0.192102343 0.981265366 0.0146593396
vn 0.783002794 0.621418536 0.0273084082
vn -0.109567136 0.990678787 -0.0809355006
vn 0.173929974 0.984757125 -0.00136360503
vn 0.0561792739 -0.289941847 0.95539397
vn -0.000858926214 -0.999980748 -0.00613727234
vn 0.000800141774 -0.999999404 0.000700932753
vn 0.0005818996 -0.999999821 0.000226813791
vn -0.471031219 0.504144371 0.72385639
vn -0.116350092 -0.952721357 0.280686289
vn 0.35773012 -0.00976087991 0.933774054
vn 0.878598332 7.85510565e-05 0.477561474
vn -0.0937055573 -0.001176522 0.995599329
vn -0.303569406 -0.952382028 0.0285324156
vn -0.304645121 -0.935926974 0.176726028
vn -0.0633296818 -0.997992396 -0.000807756209
vn -0.133920237 -0.949405432 -0.284068137
vn -0.2196908 0.103774123 -0.97003448
vn -0.220103219 0.0977518335 -0.970566392
vn -0.253281981 0.23652117 -0.938032985
vn 0.639836848 -0.00710702175 -0.768477798
vn 0.0155901555 0.00790963694 -0.999847114
vn 0.276054054 0.960474193 0.0358274765
vn -0.0308102407 0.999420404 0.0144788688
vn 0.475453615 0.813413501 -0.335115403
vn 0.0778754354 0.209999487 -0.97459507
vn 0.197193146 0.980362892 -0.00182832393
vn 0.121653952 0.992247701 0.0253939498
vn 0.0271602105 0.00242111459 0.999628127
vn 0.0442846343 -0.00753083313 0.998990595
vn 0.242267236 0.230308175 0.942478001
vn -0.0362101868 0.437458247 0.898509264
vn 0.000197334564 -0.99999994 -0.000201181771
vn -0.000574099075 -0.999999881 8.35953761e-05
vn 0.000502801675 -0.999999881 0.000103059225
vn 0.0137186768 -0.999784827 -0.0155633362
vn -0.105293989 0.95418942 0.280063868
vn -0.741850972 -0.0177701004 0.670329332
vn -0.615443408 0.240743339 0.750514567
vn 0.223053277 0.00786127616 0.974774539
vn 0.665947855 0.00282260892 0.745993018
vn -0.20361127 -0.00251141982 0.97904855
vn -0.0882570595 0.00118702801 0.996097028
vn -0.0781167597 0.476443738 0.875727773
vn -0.0841445997 -0.578348279 0.811438799
vn -0.622680545 -0.583311737 0.521551907
vn -0.568419337 -0.822027981 0.034198679
vn -0.227793336 0.158507392 -0.960721433
vn -0.635475993 0.385632068 0.668923199
vn -0.440532714 0.897649884 0.0124720689
vn -0.000231229365 -1 0.000160103242
vn 0.773008049 0.0119819529 -0.634283066
vn 0.336363196 0.000881532091 -0.94173187
vn 0.161236629 0.113678694 -0.980346859
vn -0.861573935 -0.507009327 0.0251360964
vn -0.722330451 -0.335697263 0.604604185
vn 0.846825421 0.00643371418 0.531832099
vn 0.873227417 0.242557198 0.422658026
vn 0.564143598 0.825416803 -0.0207159221
vn 0.566588223 0.823442161 -0.0303434525
vn 0.51069659 0.859742701 0.00559885474
vn 0.187978074 0.981385171 -0.0393373854
vn 0.182490587 0.965818882 -0.184095427
vn 0.0824168026 0.274958998 0.957917094
vn -0.00240873126 -0.999944806 0.0102242632
vn -0.363939852 0.872322679 0.326497853
vn -0.450516194 0.530559301 0.718012512
vn 0.189921528 0.963408709 0.18913877
vn 0.223279342 0.00739032077 0.974726439
vn 0.228878006 0.074615486 0.970591307
vn 0.980372608 -0.00266424217 0.197135374
vn -0.472109556 -0.392009377 0.789582968
vn -0.174878687 0.00274525816 0.98458612
vn -0.132068068 -0.698089361 0.703725219
vn -0.708468735 -0.70473516 0.0376887843
vn -0.957269669 0.28819263 0.0240816474
vn -0.740701497 0.671705544 0.0131510701
vn 0.772846997 0.0537984185 -0.632307887
vn 0.476989537 0.56645447 -0.672019601
vn 0.048850555 0.0807958543 -0.99553293
vn -0.767604113 0.0840393528 0.63539058
vn -0.571812987 -0.0210508909 0.820113897
vn -0.729288936 -0.42456153 0.53654927
vn 0.989052117 -0.00869082939 -0.147310168
vn 0.995924056 0.0653033778 -0.0622152649
vn 0.931451201 0.098276414 -0.350343287
vn 0.425085217 0.775149405 0.467382044
vn 0.912532389 0.230706424 0.337726295
vn 0.749247253 0.39058423 0.534857512
vn 0.694654763 0.699202597 -0.169027805
vn 0.668158948 0.647143841 -0.367108226
vn 0.27587533 0.843432903 -0.460992187
vn 0.0165950377 0.900195718 -0.435169369
vn 0.0261945464 0.86127001 -0.507471979
vn -0.37755543 0.802609205 -0.461812049
vn -0.195523441 0.973960161 0.114770025
vn -0.296041965 0.775173306 0.558090925
vn -0.620140612 -0.078285493 0.780574858
vn 0.0699037164 0.883390129 0.463395566
vn 0.10048335 0.845794499 0.52396071
vn 0.953220308 0.0115843201 0.302054375
vn 0.949762523 0.11392758 0.291498989
vn 0.942017078 0.0923857614 0.322596997
vn -0.608361006 -0.26073572 0.749609053
vn -0.14098452 -0.773586273 0.617808759
vn -0.353384495 0.553124487 0.754435301
vn -0.280583382 0.356575966 -0.891137719
vn -0.65502435 0.754569411 0.0395983234
vn -0.429283947 0.901045978 0.0618987232
vn 0.874090791 -0.00471251504 -0.485739619
vn 0.365503997 0.0561692677 -0.929113448
vn 0.585363925 0.0024289994 -0.810767055
vn -0.810230911 0.123340487 0.572986066
vn -0.815481663 -0.173717722 0.552097619
vn -0.434815764 -0.86698997 0.24344112
vn -0.430260479 -0.746333361 0.507801712
vn -0.509164155 -0.626742244 0.58986944
vn 0.999810874 0.0118021313 -0.015456493
vn 0.669185519 0.0964891762 0.736804247
vn 0.936471701 0.0137919243 -0.350471735
vn 0.91907239 0.257987678 -0.297906667
vn 0.976330996 0.215866283 -0.0133985793
vn 0.648205757 0.689450502 0.323245049
vn 0.618700922 0.315808892 0.719356656
vn 0.414806455 0.190331519 0.889780581
vn 0.828796446 0.550904334 -0.0979841873
vn 0.920228481 0.34392935 0.18679449
vn 0.662761569 0.70880121 0.241553143
vn 0.317580014 0.196802273 -0.927583814
vn -0.419504642 0.900270283 -0.116315745
vn -0.102066636 0.908389091 0.405477315
vn 0.168202624 0.807548642 -0.565307975
vn -0.115639336 0.938793778 -0.32449007
vn -0.0335860886 0.98830986 -0.148713201
vn -0.232228592 0.654686093 0.719344258
vn -0.439683586 -0.495220572 0.749289572
vn -0.234031081 0.00474789552 0.97221756
vn -0.813841939 0.580146253 0.0330399349
vn -0.84245944 0.259056151 0.472389638
vn -0.71579802 0.48253879 0.504766703
vn -0.483675063 0.642170548 0.594706178
vn -0.711850047 0.43672967 0.550033391
vn 0.353328556 0.00453335373 -0.935488403
vn 0.495132536 0.0730112642 -0.865744233
vn 0.612892449 0.336449265 -0.714957893
vn 0.509935498 0.0851888433 -0.855983973
vn 0.82069695 0.0974060521 0.562999606
vn 0.845790327 0.0810085461 0.527329445
vn 0.856017947 0.274137676 -0.438271523
vn 0.947716057 0.0717207566 -0.310950577
vn 0.475453049 0.804265797 0.356512368
vn 0.92908442 0.302674234 -0.212580487
vn 0.800848722 0.594377398 0.0731912404
vn 0.428619593 0.877716303 -0.214241251
vn 0.400357366 0.778245926 -0.483784288
vn 0.725198925 0.490880877 -0.482827604
vn 0.180916607 0.162740722 -0.969940484
vn 0.457743645 0.183462799 -0.86994946
vn -0.289872289 0.755980611 0.586913407
vn -0.204995707 0.947093368 0.246963367
vn 0.318565965 0.79825449 0.511180401
vn 0.399521828 0.0920858905 0.912086844
vn 0.448852926 0.0793877393 0.890072167
vn 0.6397717 0.107352234 0.761030674
vn -0.582933366 0.220253974 0.782097757
vn -0.413118124 0.894712746 0.169772297
vn -0.565910161 0.662180007 0.491185635
vn -0.582807899 0.788657069 0.195844218
vn 0.651464403 0.100499786 -0.751993299
vn 0.869921446 0.113403313 -0.479975462
vn 0.829164624 0.203119397 -0.520796001
vn 0.993155897 0.113756202 0.0264720488
vn 0.57207042 0.236846924 0.785263658
vn 0.27137512 0.832603574 0.482832044
vn -0.542156518 0.242798865 0.804434657
vn 0.601908803 0.254831493 -0.756813467
vn 0.666198313 0.207707822 -0.716266274
vn -8.6380147e-05 -0.999999881 -0.000360054546
vn -0.000869906973 -0.999999642 -4.25285107e-05

# Mesh '' with 200 faces
usemtl DefaultMaterial
f  1//1 2//1 3//1
f  4//2 5//2 6//2
f  7//3 8//3 2//3
f  2//4 4//4 3//4
f  8//5 4//5 2//5
f  9//6 4//6 8//6
f  10//7 11//7 12//7
f  13//8 2//8 1//8
f  4//9 6//9 14//9
f  4//10 14//10 3//10
f  15//11 16//11 17//11
f  18//12 19//12 20//12
f  21//13 22//13 23//13
f  5//14 24//14 6//14
f  14//15 6//15 25//15
f  8//16 26//16 27//16
f  7//17 2//17 13//17
f  4//18 28//18 29//18
f  30//19 5//19 11//19
f  14//20 31//20 3//20
f  32//21 33//21 23//21
f  34//22 35//22 36//22
f  37//23 38//23 39//23
f  40//24 41//24 42//24
f  34//25 43//25 35//25
f  12//26 18//26 20//26
f  18//27 12//27 23//27
f  32//28 23//28 12//28
f  32//29 12//29 44//29
f  45//30 46//30 47//30
f  10//31 30//31 11//31
f  18//32 23//32 22//32
f  48//33 32//33 44//33
f  49//34 50//34 20//34
f  30//35 24//35 5//35
f  24//36 30//36 10//36
f  51//37 11//37 5//37
f  51//38 5//38 4//38
f  52//39 9//39 27//39
f  8//40 27//40 9//40
f  53//41 27//41 54//41
f  55//42 56//42 57//42
f  4//43 9//43 28//43
f  36//44 58//44 34//44
f  41//45 59//45 42//45
f  60//46 61//46 62//46
f  52//47 53//47 63//47
f  43//48 42//48 35//48
f  35//49 42//49 59//49
f  20//50 15//50 64//50
f  19//51 15//51 20//51
f  16//52 65//52 17//52
f  66//53 64//53 17//53
f  55//54 67//54 29//54
f  44//55 67//55 68//55
f  12//56 67//56 44//56
f  67//57 4//57 29//57
f  69//58 35//58 59//58
f  70//59 71//59 13//59
f  72//60 71//60 73//60
f  22//61 19//61 18//61
f  33//62 21//62 23//62
f  50//63 46//63 74//63
f  49//64 20//64 64//64
f  66//65 49//65 64//65
f  12//66 20//66 50//66
f  75//67 31//67 25//67
f  24//68 25//68 6//68
f  52//69 27//69 53//69
f  45//70 72//70 73//70
f  76//71 41//71 54//71
f  57//72 67//72 55//72
f  56//73 77//73 57//73
f  28//74 55//74 29//74
f  28//75 52//75 78//75
f  31//76 1//76 3//76
f  70//77 1//77 75//77
f  32//78 48//78 33//78
f  79//79 80//79 81//79
f  60//80 34//80 39//80
f  34//81 37//81 39//81
f  58//82 37//82 34//82
f  34//83 62//83 43//83
f  82//84 43//84 62//84
f  15//85 17//85 64//85
f  67//86 51//86 4//86
f  69//87 83//87 84//87
f  46//88 45//88 73//88
f  35//89 85//89 36//89
f  19//90 22//90 15//90
f  22//91 16//91 15//91
f  68//92 86//92 44//92
f  50//93 74//93 75//93
f  46//94 50//94 49//94
f  12//95 50//95 87//95
f  31//96 14//96 25//96
f  8//97 7//97 26//97
f  27//98 88//98 54//98
f  89//99 77//99 56//99
f  61//100 90//100 63//100
f  52//101 28//101 9//101
f  71//102 72//102 13//102
f  91//103 71//103 74//103
f  1//104 31//104 75//104
f  92//105 68//105 67//105
f  86//106 92//106 93//106
f  94//107 93//107 77//107
f  65//108 95//108 36//108
f  80//109 79//109 96//109
f  80//110 95//110 81//110
f  39//111 97//111 60//111
f  97//112 61//112 60//112
f  62//113 63//113 82//113
f  43//114 82//114 98//114
f  53//115 98//115 82//115
f  54//116 40//116 98//116
f  59//117 41//117 83//117
f  84//118 47//118 66//118
f  74//119 71//119 70//119
f  35//120 66//120 85//120
f  85//121 66//121 17//121
f  44//122 86//122 48//122
f  79//123 86//123 96//123
f  86//124 79//124 48//124
f  70//125 75//125 74//125
f  87//126 10//126 12//126
f  46//127 49//127 47//127
f  53//128 54//128 98//128
f  54//129 88//129 76//129
f  76//130 83//130 41//130
f  77//131 67//131 57//131
f  78//132 99//132 28//132
f  55//133 99//133 56//133
f  72//134 7//134 13//134
f  13//135 1//135 70//135
f  24//136 10//136 25//136
f  87//137 25//137 10//137
f  75//138 25//138 87//138
f  92//139 86//139 68//139
f  81//140 21//140 33//140
f  77//141 92//141 67//141
f  94//142 97//142 93//142
f  38//143 96//143 93//143
f  80//144 58//144 95//144
f  65//145 81//145 95//145
f  100//146 65//146 16//146
f  39//147 38//147 97//147
f  38//148 80//148 96//148
f  37//149 58//149 80//149
f  90//150 78//150 63//150
f  54//151 41//151 40//151
f  35//152 69//152 66//152
f  82//153 63//153 53//153
f  43//154 98//154 40//154
f  40//155 42//155 43//155
f  49//156 66//156 47//156
f  87//157 50//157 75//157
f  46//158 91//158 74//158
f  26//159 88//159 27//159
f  26//160 7//160 72//160
f  45//161 88//161 26//161
f  84//162 45//162 47//162
f  45//163 26//163 72//163
f  28//164 99//164 55//164
f  78//165 101//165 56//165
f  102//166 90//166 61//166
f  78//167 56//167 99//167
f  33//168 79//168 81//168
f  79//169 33//169 48//169
f  102//170 97//170 94//170
f  93//171 92//171 77//171
f  58//172 36//172 95//172
f  93//173 97//173 38//173
f  37//174 80//174 38//174
f  34//175 60//175 62//175
f  61//176 63//176 62//176
f  97//177 102//177 61//177
f  63//178 78//178 52//178
f  90//179 101//179 78//179
f  66//180 69//180 84//180
f  83//181 69//181 59//181
f  17//182 65//182 36//182
f  16//183 22//183 100//183
f  100//184 22//184 21//184
f  81//185 100//185 21//185
f  71//186 91//186 73//186
f  83//187 76//187 84//187
f  84//188 88//188 45//188
f  76//189 88//189 84//189
f  56//190 101//190 89//190
f  77//191 89//191 94//191
f  102//192 94//192 89//192
f  96//193 86//193 93//193
f  81//194 65//194 100//194
f  85//195 17//195 36//195
f  91//196 46//196 73//196
f  90//197 102//197 101//197
f  101//198 102//198 89//198
f  67//199 12//199 51//199
f  12//200 11//200 51//200

