# https://github.com/mikedh/trimesh
mtllib link0_5_from_obj.mtl
usemtl material_0
v -0.06029700 0.05782400 0.04592400
v -0.06029700 0.05782400 0.04592400
v -0.06029700 0.05782400 0.04592400
v -0.06125700 0.05766300 0.04570000
v -0.06125700 0.05766300 0.04570000
v -0.06125700 0.05766300 0.04570000
v -0.06125700 0.05766300 0.04570000
v -0.06125700 0.05766300 0.04570000
v -0.06125700 0.05766300 0.04570000
v -0.06125700 0.05766300 0.04570000
v -0.06066000 0.05773900 0.04775100
v -0.06066000 0.05773900 0.04775100
v -0.06066000 0.05773900 0.04775100
v -0.06066000 0.05773900 0.04775100
v -0.05920300 0.05800100 0.04684300
v -0.05920300 0.05800100 0.04684300
v -0.05920300 0.05800100 0.04684300
v -0.05920300 0.05800100 0.04684300
v -0.05878700 0.05804800 0.04570000
v -0.05878700 0.05804800 0.04570000
v -0.05878700 0.05804800 0.04570000
v -0.05878700 0.05804800 0.04570000
v -0.05878700 0.05804800 0.04570000
v -0.05878700 0.05804800 0.04570000
v -0.05878700 0.05804800 0.04570000
v -0.05912800 0.05804900 0.04870100
v -0.05912800 0.05804900 0.04870100
v -0.05912800 0.05804900 0.04870100
v -0.05912800 0.05804900 0.04870100
v -0.05912800 0.05804900 0.04870100
v -0.05912800 0.05804900 0.04870100
v -0.05968500 0.05792700 0.04784700
v -0.07137700 0.05605900 0.03469700
v -0.07137700 0.05605900 0.03469700
v -0.07137700 0.05605900 0.03469700
v -0.07160900 0.05601600 0.03762400
v -0.07160900 0.05601600 0.03762400
v -0.07160900 0.05601600 0.03762400
v -0.07160900 0.05601600 0.03762400
v -0.07160900 0.05601600 0.03762400
v -0.07094300 0.05612600 0.04099200
v -0.07094300 0.05612600 0.04099200
v -0.07094300 0.05612600 0.04099200
v -0.07094300 0.05612600 0.04099200
v -0.05021300 0.05949700 0.03072000
v -0.05021300 0.05949700 0.03072000
v -0.05021300 0.05949700 0.03072000
v -0.05021300 0.05949700 0.03072000
v -0.05021300 0.05949700 0.03072000
v -0.05340700 0.05899400 0.02742400
v -0.05340700 0.05899400 0.02742400
v -0.05340700 0.05899400 0.02742400
v -0.05340700 0.05899400 0.02742400
v -0.05340700 0.05899400 0.02742400
v -0.05340700 0.05899400 0.02742400
v -0.05673000 0.05849200 0.02730000
v -0.05673000 0.05849200 0.02730000
v -0.05673000 0.05849200 0.02730000
v -0.05670200 0.05831600 0.02885600
v -0.05670200 0.05831600 0.02885600
v -0.06334700 0.05742100 0.02730000
v -0.06334700 0.05742100 0.02730000
v -0.06334700 0.05742100 0.02730000
v -0.06334700 0.05742100 0.02730000
v -0.06331800 0.05724400 0.02885600
v -0.06331800 0.05724400 0.02885600
v -0.06331800 0.05724400 0.02885600
v -0.06789800 0.05662100 0.02831300
v -0.06789800 0.05662100 0.02831300
v -0.06789800 0.05662100 0.02831300
v -0.06789800 0.05662100 0.02831300
v -0.06789800 0.05662100 0.02831300
v -0.06789800 0.05662100 0.02831300
v -0.05272700 0.05913300 0.04523900
v -0.05272700 0.05913300 0.04523900
v -0.05272700 0.05913300 0.04523900
v -0.05272700 0.05913300 0.04523900
v -0.05272700 0.05913300 0.04523900
v -0.05272700 0.05913300 0.04523900
v -0.05272700 0.05913300 0.04523900
v -0.05272700 0.05913300 0.04523900
v -0.05272700 0.05913300 0.04523900
v -0.06667500 0.05684500 0.04656400
v -0.06667500 0.05684500 0.04656400
v -0.06667500 0.05684500 0.04656400
v -0.06667500 0.05684500 0.04656400
v -0.06667500 0.05684500 0.04656400
v -0.06937400 0.05639000 0.04392500
v -0.06937400 0.05639000 0.04392500
v -0.06937400 0.05639000 0.04392500
v -0.06937400 0.05639000 0.04392500
v -0.06937400 0.05639000 0.04392500
v -0.06072000 0.05780200 0.02529000
v -0.06072000 0.05780200 0.02529000
v -0.06072000 0.05780200 0.02529000
v -0.06072000 0.05780200 0.02529000
v -0.06072000 0.05780200 0.02529000
v -0.04886200 0.05949500 0.03314300
v -0.04886200 0.05949500 0.03314300
v -0.04886200 0.05949500 0.03314300
v -0.04886200 0.05949500 0.03314300
v -0.04857600 0.05973900 0.03881700
v -0.04857600 0.05973900 0.03881700
v -0.04857600 0.05973900 0.03881700
v -0.04857600 0.05973900 0.03881700
v -0.04857600 0.05973900 0.03881700
v -0.06735100 0.05676400 0.04523700
v -0.06735100 0.05676400 0.04523700
v -0.06735100 0.05676400 0.04523700
v -0.06735100 0.05676400 0.04523700
v -0.06735100 0.05676400 0.04523700
v -0.06735100 0.05676400 0.04523700
v -0.06735100 0.05676400 0.04523700
v -0.05265100 0.05885400 0.02763600
v -0.05265100 0.05885400 0.02763600
v -0.05265100 0.05885400 0.02763600
v -0.05265100 0.05885400 0.02763600
v -0.05674500 0.05841800 0.02569700
v -0.05674500 0.05841800 0.02569700
v -0.05674500 0.05841800 0.02569700
v -0.05674500 0.05841800 0.02569700
v -0.05674500 0.05841800 0.02569700
v -0.05674500 0.05841800 0.02569700
v -0.05845700 0.05791200 0.02522000
v -0.05845700 0.05791200 0.02522000
v -0.05845700 0.05791200 0.02522000
v -0.06417800 0.05721600 0.02601100
v -0.06417800 0.05721600 0.02601100
v -0.06417800 0.05721600 0.02601100
v -0.06417800 0.05721600 0.02601100
v -0.06417800 0.05721600 0.02601100
v -0.06497500 0.05686600 0.02609200
v -0.06497500 0.05686600 0.02609200
v -0.06497500 0.05686600 0.02609200
v -0.06497500 0.05686600 0.02609200
v -0.07042500 0.05622700 0.03184800
v -0.07042500 0.05622700 0.03184800
v -0.07042500 0.05622700 0.03184800
v -0.07042500 0.05622700 0.03184800
v -0.07042500 0.05622700 0.03184800
v -0.07042500 0.05622700 0.03184800
v -0.06953500 0.05611800 0.03016100
v -0.06953500 0.05611800 0.03016100
v -0.06953500 0.05611800 0.03016100
v -0.07141400 0.05581600 0.03408700
v -0.07141400 0.05581600 0.03408700
v -0.07141400 0.05581600 0.03408700
v -0.07141400 0.05581600 0.03408700
v -0.04847400 0.05977500 0.03626100
v -0.04847400 0.05977500 0.03626100
v -0.04847400 0.05977500 0.03626100
v -0.04847400 0.05977500 0.03626100
v -0.04828800 0.05956000 0.03591600
v -0.04828800 0.05956000 0.03591600
v -0.04828800 0.05956000 0.03591600
v -0.06732900 0.05647700 0.04636700
v -0.06732900 0.05647700 0.04636700
v -0.06732900 0.05647700 0.04636700
v -0.06732900 0.05647700 0.04636700
v -0.06362000 0.05732100 0.04816700
v -0.06362000 0.05732100 0.04816700
v -0.06362000 0.05732100 0.04816700
v -0.06362000 0.05732100 0.04816700
v -0.06362000 0.05732100 0.04816700
v -0.06362000 0.05732100 0.04816700
v -0.06135800 0.05744200 0.04878000
v -0.06135800 0.05744200 0.04878000
v -0.06135800 0.05744200 0.04878000
v -0.05587400 0.05836500 0.04818000
v -0.05587400 0.05836500 0.04818000
v -0.05587400 0.05836500 0.04818000
v -0.05587400 0.05836500 0.04818000
v -0.05283100 0.05882100 0.04642100
v -0.05283100 0.05882100 0.04642100
v -0.05213700 0.05916400 0.04569900
v -0.05213700 0.05916400 0.04569900
v -0.05213700 0.05916400 0.04569900
v -0.05213700 0.05916400 0.04569900
v -0.05213700 0.05916400 0.04569900
v -0.05213700 0.05916400 0.04569900
v -0.04948100 0.05960300 0.04190000
v -0.04948100 0.05960300 0.04190000
v -0.04948100 0.05960300 0.04190000
v -0.04948100 0.05960300 0.04190000
v -0.07128300 0.05583800 0.04061800
v -0.07128300 0.05583800 0.04061800
v -0.07128300 0.05583800 0.04061800
v -0.07128300 0.05583800 0.04061800
v -0.04947800 0.05936100 0.04247300
v -0.04947800 0.05936100 0.04247300
v -0.04947800 0.05936100 0.04247300
v -0.04947800 0.05936100 0.04247300
v -0.06726900 0.05671500 0.02879900
v -0.06726900 0.05671500 0.02879900
v -0.06726900 0.05671500 0.02879900
v -0.05279200 0.05905800 0.02879800
v -0.05279200 0.05905800 0.02879800
v -0.05279200 0.05905800 0.02879800
vn -0.16780000 0.98570000 0.01240000
vn -0.14870000 0.98880000 -0.01370000
vn -0.15370000 0.98690000 -0.04890000
vn -0.15720000 0.97010000 0.18510000
vn -0.14710000 0.98900000 0.01490000
vn -0.15050000 0.98860000 -0.00710000
vn -0.13920000 0.99030000 0.00390000
vn -0.15370000 0.98690000 -0.04890000
vn -0.14720000 0.94530000 0.29120000
vn -0.16780000 0.98570000 0.01240000
vn -0.16780000 0.98570000 0.01240000
vn -0.13920000 0.99030000 0.00390000
vn -0.18730000 0.98210000 -0.01820000
vn -0.15020000 0.98550000 -0.07910000
vn -0.16260000 0.98650000 -0.01880000
vn -0.18810000 0.98200000 -0.01770000
vn -0.14870000 0.98880000 -0.01370000
vn -0.16970000 0.98540000 0.01200000
vn -0.16380000 0.97580000 0.14460000
vn -0.16520000 0.98390000 0.06800000
vn -0.09860000 0.99510000 -0.01160000
vn -0.14870000 0.98880000 -0.01370000
vn -0.14720000 0.94530000 0.29120000
vn -0.15370000 0.98690000 -0.04890000
vn -0.16260000 0.98650000 -0.01880000
vn -0.09860000 0.99510000 -0.01160000
vn -0.15020000 0.98550000 -0.07910000
vn 0.18360000 -0.56980000 0.80100000
vn -0.18810000 0.98200000 -0.01770000
vn -0.19690000 0.79820000 0.56930000
vn -0.16260000 0.98650000 -0.01880000
vn -0.18740000 0.98210000 -0.01740000
vn -0.94490000 0.31980000 -0.07020000
vn -0.74070000 0.63830000 -0.20960000
vn -0.17430000 0.98470000 0.00070000
vn -0.17870000 0.98390000 0.00320000
vn -0.71490000 0.68910000 0.11890000
vn -0.17430000 0.98470000 0.00070000
vn -0.94490000 0.31980000 -0.07020000
vn -0.57760000 -0.81620000 0.01430000
vn -0.80640000 0.44330000 0.39140000
vn -0.71490000 0.68910000 0.11890000
vn -0.18990000 0.98170000 0.01300000
vn -0.17870000 0.98390000 0.00320000
vn 0.27330000 0.87550000 -0.39850000
vn 0.62640000 -0.69660000 -0.34990000
vn -0.19980000 0.97880000 0.04420000
vn -0.16530000 0.98620000 -0.00390000
vn -0.03310000 0.99930000 0.01930000
vn 0.31800000 0.52480000 -0.78960000
vn 0.27330000 0.87550000 -0.39850000
vn -0.14740000 0.98810000 -0.04440000
vn -0.18580000 0.98190000 0.03770000
vn -0.19980000 0.97880000 0.04420000
vn -0.15240000 0.98170000 0.11440000
vn -0.14740000 0.98810000 -0.04440000
vn -0.15970000 0.98620000 -0.04420000
vn -0.15240000 0.98170000 0.11440000
vn -0.18580000 0.98190000 0.03770000
vn -0.15240000 0.98170000 0.11440000
vn -0.15200000 0.98830000 -0.01100000
vn -0.39700000 0.91110000 0.11080000
vn -0.17590000 0.98350000 -0.04320000
vn -0.15970000 0.98620000 -0.04420000
vn -0.13830000 0.98990000 0.03190000
vn -0.39700000 0.91110000 0.11080000
vn -0.13240000 0.99100000 -0.01980000
vn -0.14980000 0.98870000 0.00310000
vn -0.13240000 0.99100000 -0.01980000
vn -0.30650000 -0.81420000 -0.49310000
vn -0.63460000 0.67380000 -0.37860000
vn -0.39820000 0.80750000 -0.43520000
vn -0.13830000 0.98990000 0.03190000
vn -0.16380000 0.97580000 0.14460000
vn -0.14720000 0.94530000 0.29120000
vn -0.09160000 0.99450000 0.05070000
vn -0.16530000 0.98620000 -0.00390000
vn -0.03310000 0.99930000 0.01930000
vn -0.13080000 0.99140000 0.00890000
vn -0.15720000 0.97010000 0.18510000
vn -0.14070000 0.99000000 0.00240000
vn -0.25990000 0.96410000 -0.05420000
vn -0.21210000 0.97600000 0.04890000
vn -0.53770000 0.72850000 0.42440000
vn -0.47180000 0.42540000 0.77230000
vn -0.14710000 0.98900000 0.01490000
vn -0.15050000 0.98860000 -0.00710000
vn -0.21210000 0.97600000 0.04890000
vn -0.53770000 0.72850000 0.42440000
vn -0.18990000 0.98170000 0.01300000
vn -0.80640000 0.44330000 0.39140000
vn -0.41790000 -0.82560000 0.37920000
vn 0.00990000 -0.67600000 -0.73690000
vn -0.15200000 0.98830000 -0.01100000
vn -0.17590000 0.98350000 -0.04320000
vn -0.24870000 0.36030000 -0.89910000
vn -0.05690000 0.77950000 -0.62380000
vn -0.25990000 0.96410000 -0.05420000
vn 0.62640000 -0.69660000 -0.34990000
vn -0.03310000 0.99930000 0.01930000
vn 0.61910000 0.77160000 -0.14610000
vn 0.75920000 0.60120000 0.24940000
vn 0.78570000 0.61740000 0.03990000
vn 0.73980000 -0.66310000 0.11410000
vn -0.13080000 0.99140000 0.00890000
vn -0.14070000 0.99000000 0.00240000
vn -0.17870000 0.98390000 0.00320000
vn -0.21210000 0.97600000 0.04890000
vn -0.14710000 0.98900000 0.01490000
vn -0.17350000 0.98480000 0.00040000
vn -0.18990000 0.98170000 0.01300000
vn -0.15620000 0.98770000 -0.00370000
vn -0.15720000 0.97010000 0.18510000
vn 0.37660000 -0.66410000 -0.64590000
vn 0.31800000 0.52480000 -0.78960000
vn 0.27330000 0.87550000 -0.39850000
vn 0.62640000 -0.69660000 -0.34990000
vn 0.37660000 -0.66410000 -0.64590000
vn -0.15970000 0.98620000 -0.04420000
vn -0.15200000 0.98830000 -0.01100000
vn -0.14740000 0.98810000 -0.04440000
vn -0.05690000 0.77950000 -0.62380000
vn 0.31800000 0.52480000 -0.78960000
vn 0.00990000 -0.67600000 -0.73690000
vn 0.37660000 -0.66410000 -0.64590000
vn -0.05690000 0.77950000 -0.62380000
vn -0.17590000 0.98350000 -0.04320000
vn -0.39700000 0.91110000 0.11080000
vn -0.39820000 0.80750000 -0.43520000
vn -0.13830000 0.98990000 0.03190000
vn -0.24870000 0.36030000 -0.89910000
vn -0.24870000 0.36030000 -0.89910000
vn -0.30650000 -0.81420000 -0.49310000
vn 0.00990000 -0.67600000 -0.73690000
vn -0.39820000 0.80750000 -0.43520000
vn -0.85240000 -0.29650000 -0.43080000
vn -0.14980000 0.98870000 0.00310000
vn -0.74070000 0.63830000 -0.20960000
vn -0.63460000 0.67380000 -0.37860000
vn -0.15620000 0.98770000 -0.00370000
vn -0.17350000 0.98480000 0.00040000
vn -0.30650000 -0.81420000 -0.49310000
vn -0.63460000 0.67380000 -0.37860000
vn -0.85240000 -0.29650000 -0.43080000
vn -0.94490000 0.31980000 -0.07020000
vn -0.85240000 -0.29650000 -0.43080000
vn -0.74070000 0.63830000 -0.20960000
vn -0.57760000 -0.81620000 0.01430000
vn -0.13080000 0.99140000 0.00890000
vn -0.25990000 0.96410000 -0.05420000
vn 0.78570000 0.61740000 0.03990000
vn 0.61910000 0.77160000 -0.14610000
vn 0.78570000 0.61740000 0.03990000
vn 0.73980000 -0.66310000 0.11410000
vn 0.61910000 0.77160000 -0.14610000
vn -0.12830000 -0.76970000 0.62530000
vn -0.47180000 0.42540000 0.77230000
vn -0.53770000 0.72850000 0.42440000
vn -0.41790000 -0.82560000 0.37920000
vn -0.47180000 0.42540000 0.77230000
vn -0.12830000 -0.76970000 0.62530000
vn -0.15020000 0.98550000 -0.07910000
vn -0.13920000 0.99030000 0.00390000
vn -0.19690000 0.79820000 0.56930000
vn -0.15050000 0.98860000 -0.00710000
vn -0.12830000 -0.76970000 0.62530000
vn 0.18360000 -0.56980000 0.80100000
vn -0.19690000 0.79820000 0.56930000
vn -0.16520000 0.98390000 0.06800000
vn 0.22040000 0.78150000 0.58370000
vn 0.18360000 -0.56980000 0.80100000
vn -0.09860000 0.99510000 -0.01160000
vn 0.75460000 -0.25040000 0.60650000
vn 0.22040000 0.78150000 0.58370000
vn 0.75460000 -0.25040000 0.60650000
vn 0.37200000 0.85610000 0.35880000
vn 0.22040000 0.78150000 0.58370000
vn -0.16380000 0.97580000 0.14460000
vn -0.16520000 0.98390000 0.06800000
vn -0.09160000 0.99450000 0.05070000
vn 0.75920000 0.60120000 0.24940000
vn -0.14070000 0.99000000 0.00240000
vn -0.09160000 0.99450000 0.05070000
vn 0.37200000 0.85610000 0.35880000
vn -0.80640000 0.44330000 0.39140000
vn -0.41790000 -0.82560000 0.37920000
vn -0.57760000 -0.81620000 0.01430000
vn -0.71490000 0.68910000 0.11890000
vn 0.73980000 -0.66310000 0.11410000
vn 0.37200000 0.85610000 0.35880000
vn 0.75460000 -0.25040000 0.60650000
vn 0.75920000 0.60120000 0.24940000
vn -0.14980000 0.98870000 0.00310000
vn -0.15620000 0.98770000 -0.00370000
vn -0.13240000 0.99100000 -0.01980000
vn -0.18580000 0.98190000 0.03770000
vn -0.19980000 0.97880000 0.04420000
vn -0.16530000 0.98620000 -0.00390000
vt 0.48505639 0.50719879
vt 0.48505639 0.50719879
vt 0.48505639 0.50719879
vt 0.44389177 0.46653195
vt 0.44389177 0.46653195
vt 0.44389177 0.46653195
vt 0.44389177 0.46653195
vt 0.44389177 0.46653195
vt 0.44389177 0.46653195
vt 0.44389177 0.46653195
vt 0.46949102 0.48572872
vt 0.46949102 0.48572872
vt 0.46949102 0.48572872
vt 0.46949102 0.48572872
vt 0.53196690 0.55190705
vt 0.53196690 0.55190705
vt 0.53196690 0.55190705
vt 0.53196690 0.55190705
vt 0.54980490 0.56377873
vt 0.54980490 0.56377873
vt 0.54980490 0.56377873
vt 0.54980490 0.56377873
vt 0.54980490 0.56377873
vt 0.54980490 0.56377873
vt 0.54980490 0.56377873
vt 0.53518288 0.56403132
vt 0.53518288 0.56403132
vt 0.53518288 0.56403132
vt 0.53518288 0.56403132
vt 0.53518288 0.56403132
vt 0.53518288 0.56403132
vt 0.51129883 0.53321546
vt 0.00994812 0.06137914
vt 0.00994812 0.06137914
vt 0.00994812 0.06137914
vt 0.00000000 0.05051781
vt 0.00000000 0.05051781
vt 0.00000000 0.05051781
vt 0.00000000 0.05051781
vt 0.00000000 0.05051781
vt 0.02855795 0.07830260
vt 0.02855795 0.07830260
vt 0.02855795 0.07830260
vt 0.02855795 0.07830260
vt 0.91745637 0.92978025
vt 0.91745637 0.92978025
vt 0.91745637 0.92978025
vt 0.91745637 0.92978025
vt 0.91745637 0.92978025
vt 0.78049826 0.80272796
vt 0.78049826 0.80272796
vt 0.78049826 0.80272796
vt 0.78049826 0.80272796
vt 0.78049826 0.80272796
vt 0.78049826 0.80272796
vt 0.63800866 0.67592826
vt 0.63800866 0.67592826
vt 0.63800866 0.67592826
vt 0.63920930 0.63147259
vt 0.63920930 0.63147259
vt 0.35427297 0.40540541
vt 0.35427297 0.40540541
vt 0.35427297 0.40540541
vt 0.35427297 0.40540541
vt 0.35551649 0.36069715
vt 0.35551649 0.36069715
vt 0.35551649 0.36069715
vt 0.15912697 0.20333418
vt 0.15912697 0.20333418
vt 0.15912697 0.20333418
vt 0.15912697 0.20333418
vt 0.15912697 0.20333418
vt 0.15912697 0.20333418
vt 0.80965653 0.83783784
vt 0.80965653 0.83783784
vt 0.80965653 0.83783784
vt 0.80965653 0.83783784
vt 0.80965653 0.83783784
vt 0.80965653 0.83783784
vt 0.80965653 0.83783784
vt 0.80965653 0.83783784
vt 0.80965653 0.83783784
vt 0.21156897 0.25991412
vt 0.21156897 0.25991412
vt 0.21156897 0.25991412
vt 0.21156897 0.25991412
vt 0.21156897 0.25991412
vt 0.09583637 0.14498611
vt 0.09583637 0.14498611
vt 0.09583637 0.14498611
vt 0.09583637 0.14498611
vt 0.09583637 0.14498611
vt 0.46691823 0.50164183
vt 0.46691823 0.50164183
vt 0.46691823 0.50164183
vt 0.46691823 0.50164183
vt 0.46691823 0.50164183
vt 0.97538699 0.92927507
vt 0.97538699 0.92927507
vt 0.97538699 0.92927507
vt 0.97538699 0.92927507
vt 0.98765062 0.99090679
vt 0.98765062 0.99090679
vt 0.98765062 0.99090679
vt 0.98765062 0.99090679
vt 0.98765062 0.99090679
vt 0.18258222 0.23945441
vt 0.18258222 0.23945441
vt 0.18258222 0.23945441
vt 0.18258222 0.23945441
vt 0.18258222 0.23945441
vt 0.18258222 0.23945441
vt 0.18258222 0.23945441
vt 0.81291540 0.76736550
vt 0.81291540 0.76736550
vt 0.81291540 0.76736550
vt 0.81291540 0.76736550
vt 0.63736546 0.65723668
vt 0.63736546 0.65723668
vt 0.63736546 0.65723668
vt 0.63736546 0.65723668
vt 0.63736546 0.65723668
vt 0.63736546 0.65723668
vt 0.56395523 0.52942662
vt 0.56395523 0.52942662
vt 0.56395523 0.52942662
vt 0.31863985 0.35362465
vt 0.31863985 0.35362465
vt 0.31863985 0.35362465
vt 0.31863985 0.35362465
vt 0.31863985 0.35362465
vt 0.28446465 0.26521849
vt 0.28446465 0.26521849
vt 0.28446465 0.26521849
vt 0.28446465 0.26521849
vt 0.05076969 0.10381409
vt 0.05076969 0.10381409
vt 0.05076969 0.10381409
vt 0.05076969 0.10381409
vt 0.05076969 0.10381409
vt 0.05076969 0.10381409
vt 0.08893272 0.07628189
vt 0.08893272 0.07628189
vt 0.08893272 0.07628189
vt 0.00836156 0.00000000
vt 0.00836156 0.00000000
vt 0.00836156 0.00000000
vt 0.00836156 0.00000000
vt 0.99202436 1.00000000
vt 0.99202436 1.00000000
vt 0.99202436 1.00000000
vt 0.99202436 1.00000000
vt 1.00000000 0.94569336
vt 1.00000000 0.94569336
vt 1.00000000 0.94569336
vt 0.18352558 0.16696135
vt 0.18352558 0.16696135
vt 0.18352558 0.16696135
vt 0.18352558 0.16696135
vt 0.34256679 0.38014650
vt 0.34256679 0.38014650
vt 0.34256679 0.38014650
vt 0.34256679 0.38014650
vt 0.34256679 0.38014650
vt 0.34256679 0.38014650
vt 0.43956091 0.41070978
vt 0.43956091 0.41070978
vt 0.43956091 0.41070978
vt 0.67471378 0.64384946
vt 0.67471378 0.64384946
vt 0.67471378 0.64384946
vt 0.67471378 0.64384946
vt 0.80519703 0.75903006
vt 0.80519703 0.75903006
vt 0.83495562 0.84566810
vt 0.83495562 0.84566810
vt 0.83495562 0.84566810
vt 0.83495562 0.84566810
vt 0.83495562 0.84566810
vt 0.83495562 0.84566810
vt 0.94884439 0.95655469
vt 0.94884439 0.95655469
vt 0.94884439 0.95655469
vt 0.94884439 0.95655469
vt 0.01397882 0.00555696
vt 0.01397882 0.00555696
vt 0.01397882 0.00555696
vt 0.01397882 0.00555696
vt 0.94897303 0.89542814
vt 0.94897303 0.89542814
vt 0.94897303 0.89542814
vt 0.94897303 0.89542814
vt 0.18609837 0.22707754
vt 0.18609837 0.22707754
vt 0.18609837 0.22707754
vt 0.80686935 0.81889366
vt 0.80686935 0.81889366
vt 0.80686935 0.81889366
f 10/10/10 11/11/11 1/1/1
f 11/11/11 18/18/18 1/1/1
f 13/13/13 29/29/29 32/32/32
f 32/32/32 29/29/29 16/16/16
f 15/15/15 31/31/31 25/25/25
f 3/3/3 24/24/24 8/8/8
f 17/17/17 22/22/22 2/2/2
f 13/13/13 32/32/32 16/16/16
f 110/110/110 35/35/35 38/38/38
f 107/107/107 36/36/36 44/44/44
f 197/197/197 47/47/47 54/54/54
f 56/56/56 52/52/52 121/121/121
f 60/60/60 55/55/55 58/58/58
f 59/59/59 196/196/196 53/53/53
f 63/63/63 95/95/95 127/127/127
f 128/128/128 66/66/66 62/62/62
f 73/73/73 65/65/65 130/130/130
f 195/195/195 67/67/67 69/69/69
f 76/76/76 180/180/180 183/183/183
f 137/137/137 193/193/193 68/68/68
f 19/19/19 178/178/178 74/74/74
f 20/20/20 169/169/169 179/179/179
f 26/26/26 172/172/172 21/21/21
f 162/162/162 27/27/27 14/14/14
f 163/163/163 12/12/12 7/7/7
f 87/87/87 165/165/165 6/6/6
f 86/86/86 5/5/5 109/109/109
f 90/90/90 111/111/111 43/43/43
f 88/88/88 83/83/83 108/108/108
f 64/64/64 57/57/57 119/119/119
f 61/61/61 120/120/120 94/94/94
f 198/198/198 77/77/77 48/48/48
f 49/49/49 78/78/78 100/100/100
f 98/98/98 82/82/82 150/150/150
f 149/149/149 79/79/79 105/105/105
f 106/106/106 81/81/81 182/182/182
f 80/80/80 113/113/113 4/4/4
f 75/75/75 9/9/9 23/23/23
f 112/112/112 194/194/194 140/140/140
f 110/110/110 141/141/141 35/35/35
f 50/50/50 115/115/115 123/123/123
f 132/132/132 131/131/131 96/96/96
f 72/72/72 129/129/129 135/135/135
f 143/143/143 139/139/139 71/71/71
f 46/46/46 99/99/99 117/117/117
f 138/138/138 147/147/147 34/34/34
f 40/40/40 148/148/148 187/187/187
f 118/118/118 114/114/114 125/125/125
f 126/126/126 97/97/97 122/122/122
f 93/93/93 124/124/124 134/134/134
f 116/116/116 51/51/51 45/45/45
f 70/70/70 133/133/133 142/142/142
f 136/136/136 144/144/144 146/146/146
f 145/145/145 39/39/39 33/33/33
f 101/101/101 152/152/152 155/155/155
f 85/85/85 157/157/157 160/160/160
f 177/177/177 170/170/170 174/174/174
f 190/190/190 184/184/184 176/176/176
f 92/92/92 186/186/186 159/159/159
f 104/104/104 189/189/189 154/154/154
f 151/151/151 103/103/103 153/153/153
f 161/161/161 156/156/156 166/166/166
f 28/28/28 167/167/167 171/171/171
f 91/91/91 41/41/41 185/185/185
f 158/158/158 84/84/84 89/89/89
f 175/175/175 173/173/173 191/191/191
f 168/168/168 30/30/30 164/164/164
f 181/181/181 192/192/192 102/102/102
f 42/42/42 37/37/37 188/188/188

